<?xml version="1.0" encoding="UTF-8" standalone="no"?>
<!-- Created with Inkscape (http://www.inkscape.org/) -->

<svg
   width="100"
   height="100"
   viewBox="0 0 100 100"
   version="1.1"
   id="svg1"
   sodipodi:docname="key.svg"
   inkscape:version="1.4.2 (ebf0e940d0, 2025-05-08)"
   xmlns:inkscape="http://www.inkscape.org/namespaces/inkscape"
   xmlns:sodipodi="http://sodipodi.sourceforge.net/DTD/sodipodi-0.dtd"
   xmlns="http://www.w3.org/2000/svg"
   xmlns:svg="http://www.w3.org/2000/svg">
  <sodipodi:namedview
     id="namedview1"
     pagecolor="#ffffff"
     bordercolor="#000000"
     borderopacity="0.25"
     inkscape:showpageshadow="2"
     inkscape:pageopacity="0.0"
     inkscape:pagecheckerboard="0"
     inkscape:deskcolor="#d1d1d1"
     inkscape:zoom="4.8944444"
     inkscape:cx="90"
     inkscape:cy="90"
     inkscape:window-width="1920"
     inkscape:window-height="1131"
     inkscape:window-x="0"
     inkscape:window-y="0"
     inkscape:window-maximized="1"
     inkscape:current-layer="svg1" />
  <defs
     id="defs1" />
  <g
     id="layer1"
     transform="scale(0.55555556)">
    <path
       id="path1"
       style="fill:#ffd42a;stroke-width:4.92264;stroke-linecap:round;paint-order:stroke markers fill"
       d="m 16.443525,16.443523 a 56.141695,56.141695 0 0 1 79.396352,0 56.141695,56.141695 0 0 1 15.879273,47.63781 L 180,132.3622 156.1811,156.18111 132.3622,180 l -11.90946,-11.90944 23.81891,-23.81891 -3.17586,-3.17586 -27.78872,27.78874 -11.90945,-11.90947 27.78872,-27.78871 -3.17585,-3.17586 -23.8189,23.8189 -11.909457,-11.90945 23.818907,-23.8189 -18.261163,-18.261165 a 56.141695,56.141695 0 0 1 -79.396352,0 56.141695,56.141695 0 0 1 0,-79.396352 z m 19.84909,19.84909 a 28.070848,28.070848 0 0 0 0,39.69818 28.070848,28.070848 0 0 0 39.69818,0 28.070848,28.070848 0 0 0 0,-39.69818 28.070848,28.070848 0 0 0 -39.69818,0 z" />
  </g>
</svg>
