<?xml version="1.0" encoding="UTF-8"?>
<svg id="Layer_1" data-name="Layer 1" xmlns="http://www.w3.org/2000/svg" viewBox="0 0 208.98 314.09">
  <path d="M76.44,225.64V0h30.77c24.91,41.91,46.1,54.83,61.55,58.24,4.66,1.03,16.93,2.99,26.49,12.78,8.31,8.5,10.69,18.93,12.05,25.24,4.05,18.78-.06,38.5-3.4,38.59-1.88.05-4.6-6.09-8.35-32.54-5.18-4.61-13.91-11.78-25.92-18.72-13.92-8.04-21.6-9.62-36.6-17.7-6.93-3.73-17.24-9.83-29.06-19.14.67,57.7,1.34,115.39,2.02,173.09,1.73,6.08,3.46,12.16,5.18,18.24,1.33,5.29,5.04,22.86-4.32,40.26-6.4,11.9-15.17,18.56-24.19,23-23.68,11.65-37.8,14.97-48.75,11.38-7.75-2.54-12.22-7.64-15.76-11.38-10.7-11.28-24.73-35.39-14.69-57.6,5.34-11.81,17.73-23.65,30.77-24.25,5.74-.27,8.18,1.8,22.8,4.09,8.23,1.29,15.02,1.82,19.43,2.06Z" style="fill: #2c3035;"/>
</svg>