<?xml version="1.0" encoding="UTF-8"?>
<svg id="Layer_1" data-name="Layer 1" xmlns="http://www.w3.org/2000/svg" viewBox="0 0 229.37 282.25">
  <path d="M58.88,200L76.82,0h137.18c5.12,80.26,10.25,160.53,15.37,240.79-3.7,26.82-24.63,43.47-42.29,41.26-15.29-1.91-29.28-18.1-29.34-31.2,0-1.78-.03-6.91,3.37-11.21,1.08-1.37,3.9-4.41,12.67-6.34,5.08-1.11,14.17-2.3,25.91.67v-32.69l-11.33-170.51-75.64-3.85c-4.89,62.15-9.79,124.3-14.68,186.46-3.33,29.01-20.51,50.09-39.16,52-15.26,1.56-27.97-10.07-36.87-18.21-9.51-8.71-26.84-28.7-20.74-39.94,2.96-5.45,10.29-6.74,20.42-8.52,15.9-2.79,29.18-.65,37.18,1.28Z" style="fill: #2c3035;"/>
</svg>