<?xml version="1.0" encoding="UTF-8"?>
<svg id="Layer_1" data-name="Layer 1" xmlns="http://www.w3.org/2000/svg" viewBox="0 0 126.72 161.28">
  <rect width="126.72" height="161.28" style="fill: none;"/>
  <path d="M93.15,7.68c-.36,37.97-.73,75.94-1.09,113.91-1.4-.5-9.67-3.33-17.14,1.05-9.42,5.53-11.96,19.26-6.91,27.65,5.3,8.81,17.18,8.71,25.34,8.64,6.06-.05,14.71-.13,21.02-6.62,5.59-5.76,6.15-13.26,6.34-15.84.18-2.51.43-6.61-1.9-10.47-1.17-1.93-2.49-2.97-3.11-3.55-4.92-4.5-3.86-12.38-4.06-20.58-.11-4.66-.25,3.09-2.64-20.8-2.18-21.79-2.36-31.17-4.03-50.54-.55-6.35-1.42-15.62-2.74-26.93-3.03,1.36-6.06,2.72-9.09,4.08Z" style="fill: #333;"/>
</svg>