<?xml version="1.0" encoding="UTF-8" standalone="no"?>
<!-- Created with Inkscape (http://www.inkscape.org/) -->

<svg
   width="512"
   height="512"
   viewBox="0 0 512 512"
   version="1.1"
   id="svg1"
   xmlns="http://www.w3.org/2000/svg"
   xmlns:svg="http://www.w3.org/2000/svg">
  <defs
     id="defs1" />
  <g
     id="layer1">
    <path
       id="path1-0"
       style="fill:#9f2f4c;fill-opacity:1;stroke-width:3.69514;stroke-linecap:square;paint-order:stroke markers fill"
       d="M 256,-5.0000017e-8 A 150,150 0 0 0 106.00001,150 150,150 0 0 0 198.06445,288.36133 229.30486,257.65976 0 0 0 27.835935,512 H 484.16406 A 229.30486,257.65976 0 0 0 313.93556,288.35938 150,150 0 0 0 406,150 150,150 0 0 0 256,-5.0000017e-8 Z" />
    <path
       style="fill:none;fill-opacity:1;stroke:#ffffff;stroke-width:3.78;stroke-linecap:round;stroke-dasharray:none;stroke-opacity:1;paint-order:stroke markers fill"
       d="m 159.81837,132.84448 38.35642,-0.58115"
       id="path3" />
    <path
       style="fill:none;fill-opacity:1;stroke:#ffffff;stroke-width:3.78;stroke-linecap:round;stroke-dasharray:none;stroke-opacity:1;paint-order:stroke markers fill"
       d="m 309.82188,132.84448 38.35642,-0.58115"
       id="path3-1" />
    <path
       style="fill:none;fill-opacity:1;stroke:#ffffff;stroke-width:3.78;stroke-linecap:round;stroke-dasharray:none;stroke-opacity:1;paint-order:stroke markers fill"
       d="M 178.99698,194.30873 H 329.00009"
       id="path4" />
  </g>
</svg>
