<?xml version="1.0" encoding="UTF-8" standalone="no"?>
<!-- Created with Inkscape (http://www.inkscape.org/) -->

<svg
   width="512"
   height="512"
   viewBox="0 0 512 512"
   version="1.1"
   id="svg1"
   xmlns="http://www.w3.org/2000/svg"
   xmlns:svg="http://www.w3.org/2000/svg">
  <defs
     id="defs1" />
  <g
     id="layer1">
    <path
       id="path1-0"
       style="fill:#9f2f4c;fill-opacity:1;stroke-width:3.69514;stroke-linecap:square;paint-order:stroke markers fill"
       d="M 256,0 A 150,150 0 0 0 106,150 150,150 0 0 0 198.06445,288.36133 229.30486,257.65976 0 0 0 27.835935,512 H 484.16406 A 229.30486,257.65976 0 0 0 313.93555,288.35938 150,150 0 0 0 406,150 150,150 0 0 0 256,0 Z" />
    <path
       style="fill:none;fill-opacity:1;stroke:#ffffff;stroke-width:3.78;stroke-linecap:round;stroke-dasharray:none;stroke-opacity:1;paint-order:stroke markers fill"
       d="m 159.81839,132.84448 38.35642,-0.58115"
       id="path3" />
    <path
       style="fill:none;fill-opacity:1;stroke:#ffffff;stroke-width:3.78;stroke-linecap:round;stroke-dasharray:none;stroke-opacity:1;paint-order:stroke markers fill"
       d="m 309.8219,132.84448 38.35642,-0.58115"
       id="path3-1" />
    <path
       style="fill:none;fill-opacity:1;stroke:#ffffff;stroke-width:3.78;stroke-linecap:round;stroke-dasharray:none;stroke-opacity:1;paint-order:stroke markers fill"
       d="M 178.997,194.30873 H 329.00011"
       id="path4" />
    <circle
       style="fill:#9f2f4c;stroke-width:2;stroke-linecap:round;stroke-linejoin:round;paint-order:stroke markers fill"
       id="path5"
       cx="406.83121"
       cy="-15.96612"
       r="19.725149" />
    <circle
       style="fill:#9f2f4c;stroke-width:3.16666;stroke-linecap:round;stroke-linejoin:round;paint-order:stroke markers fill"
       id="path5-7"
       cx="448.74713"
       cy="-69.388405"
       r="31.231487" />
    <path
       id="path5-7-9"
       style="fill:#9f2f4c;stroke-width:4.24999;stroke-linecap:round;stroke-linejoin:round;paint-order:stroke markers fill"
       d="m 267.16211,-402.1815 a 100.26951,100.26951 0 0 0 -77.9668,37.21875 100.26951,100.26951 0 0 0 -6.25195,-0.19336 100.26951,100.26951 0 0 0 -100.269532,100.26953 100.26951,100.26951 0 0 0 23.185552,64.12304 100.26951,100.26951 0 0 0 -26.07813,67.45118 100.26951,100.26951 0 0 0 100.26953,100.269529 100.26951,100.26951 0 0 0 81.70313,-42.142579 76.434952,76.434952 0 0 0 40.08007,11.351563 76.434952,76.434952 0 0 0 59.99024,-29.070313 41.915943,41.915943 0 0 0 25.00976,8.279297 41.915943,41.915943 0 0 0 41.91602,-41.916017 41.915943,41.915943 0 0 0 -21.20312,-36.44141 100.26951,100.26951 0 0 0 21.60742,-62.17968 100.26951,100.26951 0 0 0 -63.06641,-93.11328 100.26951,100.26951 0 0 0 -98.92578,-83.90625 z" />
  </g>
</svg>
