<?xml version="1.0" encoding="UTF-8" standalone="no"?>
<!-- Created with Inkscape (http://www.inkscape.org/) -->

<svg
   width="100"
   height="100"
   viewBox="0 0 100 100"
   version="1.1"
   id="svg1"
   sodipodi:docname="books.svg"
   inkscape:version="1.4.2 (ebf0e940d0, 2025-05-08)"
   xmlns:inkscape="http://www.inkscape.org/namespaces/inkscape"
   xmlns:sodipodi="http://sodipodi.sourceforge.net/DTD/sodipodi-0.dtd"
   xmlns="http://www.w3.org/2000/svg"
   xmlns:svg="http://www.w3.org/2000/svg">
  <sodipodi:namedview
     id="namedview1"
     pagecolor="#ffffff"
     bordercolor="#000000"
     borderopacity="0.25"
     inkscape:showpageshadow="2"
     inkscape:pageopacity="0.0"
     inkscape:pagecheckerboard="0"
     inkscape:deskcolor="#d1d1d1"
     inkscape:zoom="6.9217896"
     inkscape:cx="18.709034"
     inkscape:cy="55.693689"
     inkscape:window-width="1920"
     inkscape:window-height="1131"
     inkscape:window-x="0"
     inkscape:window-y="0"
     inkscape:window-maximized="1"
     inkscape:current-layer="text1"
     showguides="false" />
  <defs
     id="defs1" />
  <path
     id="rect1"
     style="fill:#303b3c;stroke-width:2.14814;stroke-linecap:round;stroke-linejoin:round;paint-order:stroke markers fill"
     d="m 2,0 h 21 c 1.108,0 2,0.892 2,2 v 96 c 0,1.108 -0.892,2 -2,2 H 2 C 0.892,100 0,99.108 0,98 V 2 C 0,0.892 0.892,0 2,0 Z" />
  <path
     id="rect1-5"
     style="fill:#45362e;stroke-width:1.71852;stroke-linecap:round;stroke-linejoin:round;paint-order:stroke markers fill"
     d="m 27,20 h 16 c 1.108,0 2,0.892 2,2 v 76 c 0,1.108 -0.892,2 -2,2 H 27 c -1.108,0 -2,-0.892 -2,-2 V 22 c 0,-1.108 0.892,-2 2,-2 z" />
  <path
     id="rect1-5-7"
     style="fill:#313a46;stroke-width:1.75227;stroke-linecap:round;stroke-linejoin:round;paint-order:stroke markers fill"
     d="m 68.701389,19.531389 16.087952,-2.707624 c 1.114091,-0.187502 2.161945,0.558451 2.349447,1.672542 L 100,94.914081 c 0.1875,1.114091 -0.558451,2.161945 -1.672542,2.349447 L 82.239507,99.971151 C 81.125416,100.15866 80.077563,99.412702 79.89006,98.29861 L 67.028849,21.880836 c -0.187504,-1.11409 0.558449,-2.161944 1.67254,-2.349447 z" />
  <path
     id="rect1-5-2"
     style="fill:#393557;stroke-width:1.91173;stroke-linecap:round;stroke-linejoin:round;paint-order:stroke markers fill"
     d="m 47,10 h 18 c 1.108,0 2,0.892 2,2 v 86 c 0,1.108 -0.892,2 -2,2 H 47 c -1.108,0 -2,-0.892 -2,-2 V 12 c 0,-1.108 0.892,-2 2,-2 z" />
  <g
     id="text1"
     style="font-size:8px;line-height:1;font-family:'Adwaita Mono';-inkscape-font-specification:'Adwaita Mono';letter-spacing:0px;word-spacing:0px;fill:#313a46;stroke-width:1.1854;stroke-linecap:round;stroke-linejoin:round;paint-order:stroke markers fill"
     transform="rotate(-90)"
     aria-label="BOOK with&#10;LETTERS">
    <path
       style="fill:#ffcc00"
       d="m -60.216025,10.944 h -1.576 v -5.88 h 1.576 q 0.216,0 0.432,0.032 0.216,0.032 0.416,0.12 0.2,0.088 0.368,0.232 0.176,0.136 0.288,0.328 0.112,0.184 0.152,0.4 0.048,0.216 0.048,0.44 0,0.192 -0.04,0.392 -0.04,0.2 -0.144,0.368 -0.104,0.168 -0.264,0.296 -0.152,0.128 -0.336,0.208 0.224,0.072 0.424,0.208 0.2,0.128 0.336,0.32 0.144,0.184 0.2,0.416 0.064,0.232 0.064,0.464 0,0.2399996 -0.056,0.4799996 -0.056,0.2400004 -0.192,0.4400004 -0.136,0.2 -0.336,0.352 -0.192,0.144 -0.416,0.232 -0.224,0.088 -0.464,0.12 -0.24,0.032 -0.48,0.032 z m -0.912,-3.336 h 0.912 q 0.136,0 0.264,-0.024 0.136,-0.024 0.256,-0.08 0.128,-0.056 0.232,-0.144 0.104,-0.088 0.168,-0.208 0.072,-0.12 0.096,-0.256 0.032,-0.136 0.032,-0.272 0,-0.136 -0.032,-0.264 -0.024,-0.136 -0.096,-0.256 -0.064,-0.12 -0.168,-0.208 -0.104,-0.096 -0.232,-0.144 -0.12,-0.056 -0.256,-0.08 -0.128,-0.024 -0.264,-0.024 h -0.912 z m 0,2.744 h 0.912 q 0.16,0 0.312,-0.016 0.16,-0.024 0.304,-0.08 0.152,-0.056 0.28,-0.152 0.136,-0.096 0.224,-0.2240004 0.088,-0.128 0.12,-0.288 0.04,-0.1599996 0.04,-0.3119996 0,-0.16 -0.04,-0.32 -0.032,-0.16 -0.12,-0.288 -0.088,-0.136 -0.224,-0.232 -0.128,-0.096 -0.28,-0.152 -0.144,-0.056 -0.304,-0.072 -0.152,-0.024 -0.312,-0.024 h -0.912 z m 5.832003,0.656 q -0.232,0 -0.464,-0.04 -0.232,-0.04 -0.44,-0.136 -0.208,-0.096 -0.384,-0.256 -0.168,-0.168 -0.28,-0.368 -0.104,-0.2080004 -0.152,-0.4400004 -0.04,-0.232 -0.04,-0.4639996 v -2.6 q 0,-0.232 0.04,-0.464 0.048,-0.232 0.152,-0.432 0.112,-0.208 0.28,-0.368 0.176,-0.168 0.384,-0.264 0.208,-0.096 0.44,-0.136 0.232,-0.04 0.464,-0.04 0.232,0 0.464,0.04 0.232,0.04 0.44,0.136 0.208,0.096 0.376,0.264 0.176,0.16 0.28,0.368 0.112,0.2 0.152,0.432 0.048,0.232 0.048,0.464 v 2.6 q 0,0.2319996 -0.048,0.4639996 -0.04,0.232 -0.152,0.4400004 -0.104,0.2 -0.28,0.368 -0.168,0.16 -0.376,0.256 -0.208,0.096 -0.44,0.136 -0.232,0.04 -0.464,0.04 z m 0,-0.592 q 0.152,0 0.296,-0.024 0.144,-0.024 0.272,-0.088 0.136,-0.072 0.24,-0.176 0.112,-0.112 0.176,-0.2400004 0.064,-0.136 0.088,-0.28 0.024,-0.1519996 0.024,-0.3039996 v -2.6 q 0,-0.152 -0.024,-0.296 -0.024,-0.152 -0.088,-0.28 -0.064,-0.136 -0.176,-0.24 -0.104,-0.112 -0.24,-0.176 -0.128,-0.072 -0.272,-0.096 -0.144,-0.024 -0.296,-0.024 -0.152,0 -0.296,0.024 -0.144,0.024 -0.28,0.096 -0.128,0.064 -0.24,0.176 -0.104,0.104 -0.168,0.24 -0.064,0.128 -0.088,0.28 -0.024,0.144 -0.024,0.296 v 2.6 q 0,0.152 0.024,0.3039996 0.024,0.144 0.088,0.28 0.064,0.1280004 0.168,0.2400004 0.112,0.104 0.24,0.176 0.136,0.064 0.28,0.088 0.144,0.024 0.296,0.024 z m 4.800003,0.592 q -0.232,0 -0.464,-0.04 -0.232,-0.04 -0.44,-0.136 -0.208,-0.096 -0.384,-0.256 -0.168,-0.168 -0.28,-0.368 -0.104,-0.2080004 -0.152,-0.4400004 -0.04,-0.232 -0.04,-0.4639996 v -2.6 q 0,-0.232 0.04,-0.464 0.048,-0.232 0.152,-0.432 0.112,-0.208 0.28,-0.368 0.176,-0.168 0.384,-0.264 0.208,-0.096 0.44,-0.136 0.232,-0.04 0.464,-0.04 0.232,0 0.464,0.04 0.232,0.04 0.44,0.136 0.208,0.096 0.376,0.264 0.176,0.16 0.28,0.368 0.112,0.2 0.152,0.432 0.048,0.232 0.048,0.464 v 2.6 q 0,0.2319996 -0.048,0.4639996 -0.04,0.232 -0.152,0.4400004 -0.104,0.2 -0.28,0.368 -0.168,0.16 -0.376,0.256 -0.208,0.096 -0.44,0.136 -0.232,0.04 -0.464,0.04 z m 0,-0.592 q 0.152,0 0.296,-0.024 0.144,-0.024 0.272,-0.088 0.136,-0.072 0.24,-0.176 0.112,-0.112 0.176,-0.2400004 0.064,-0.136 0.088,-0.28 0.024,-0.1519996 0.024,-0.3039996 v -2.6 q 0,-0.152 -0.024,-0.296 -0.024,-0.152 -0.088,-0.28 -0.064,-0.136 -0.176,-0.24 -0.104,-0.112 -0.24,-0.176 -0.128,-0.072 -0.272,-0.096 -0.144,-0.024 -0.296,-0.024 -0.152,0 -0.296,0.024 -0.144,0.024 -0.28,0.096 -0.128,0.064 -0.24,0.176 -0.104,0.104 -0.168,0.24 -0.064,0.128 -0.088,0.28 -0.024,0.144 -0.024,0.296 v 2.6 q 0,0.152 0.024,0.3039996 0.024,0.144 0.088,0.28 0.064,0.1280004 0.168,0.2400004 0.112,0.104 0.24,0.176 0.136,0.064 0.28,0.088 0.144,0.024 0.296,0.024 z m 6.600003,0.528 h -0.736 l -1.48,-2.664 -0.472,0.672 v 1.992 h -0.656 v -5.88 h 0.656 V 7.92 l 1.92,-2.856 h 0.768 l -1.84,2.664 z m 9.000007,0 h -0.6 l -0.6,-3.328 -0.6,3.328 h -0.6 l -0.808,-4.16 h 0.632 l 0.488,3.256 0.584,-3.256 h 0.608 l 0.584,3.256 0.488,-3.256 h 0.632 z m 1.992003,0 v -0.592 h 1.344 V 7.368 h -0.832 V 6.784 h 1.488 v 3.568 h 1.216 v 0.592 z m 1.656,-4.864 q -0.104,0 -0.2,-0.024 -0.096,-0.032 -0.168,-0.104 -0.072,-0.072 -0.104,-0.168 -0.024,-0.096 -0.024,-0.2 0,-0.104 0.024,-0.2 0.032,-0.096 0.104,-0.168 0.072,-0.072 0.168,-0.104 0.096,-0.032 0.2,-0.032 0.104,0 0.2,0.032 0.096,0.032 0.168,0.104 0.072,0.072 0.104,0.168 0.032,0.096 0.032,0.2 0,0.104 -0.032,0.2 -0.032,0.096 -0.104,0.168 -0.072,0.072 -0.168,0.104 -0.096,0.024 -0.2,0.024 z m 6.448003,4.864 h -0.864 q -0.184,0 -0.368,-0.032 -0.176,-0.032 -0.344,-0.112 -0.16,-0.08 -0.288,-0.208 -0.128,-0.128 -0.208,-0.288 -0.08,-0.168 -0.112,-0.3440004 -0.032,-0.184 -0.032,-0.368 V 7.368 h -1.176 V 6.784 h 1.176 v -1.72 h 0.664 v 1.72 h 1.552 v 0.584 h -1.552 v 2.2239996 q 0,0.152 0.032,0.296 0.04,0.1440004 0.128,0.2560004 0.096,0.112 0.24,0.16 0.144,0.048 0.288,0.048 h 0.864 z m 1.408003,0 v -5.88 h 0.664 v 2.52 q 0.072,-0.192 0.2,-0.36 0.128,-0.168 0.296,-0.288 0.176,-0.12 0.376,-0.168 0.208,-0.048 0.424,-0.048 0.208,0 0.416,0.056 0.216,0.048 0.392,0.176 0.176,0.12 0.296,0.296 0.128,0.176 0.2,0.376 0.072,0.2 0.096,0.416 Q -20,8.248 -20,8.464 v 2.48 h -0.664 v -2.48 q 0,-0.144 -0.024,-0.288 -0.016,-0.152 -0.072,-0.288 -0.056,-0.136 -0.152,-0.248 -0.096,-0.12 -0.224,-0.192 -0.12,-0.08 -0.272,-0.104 -0.144,-0.032 -0.288,-0.032 -0.144,0 -0.296,0.032 -0.144,0.024 -0.272,0.104 -0.12,0.072 -0.216,0.192 -0.096,0.112 -0.152,0.248 -0.056,0.136 -0.08,0.288 -0.016,0.144 -0.016,0.288 v 2.48 z"
       id="path6" />
    <path
       style="fill:#ffcc00"
       d="m -61.904019,18.944 v -5.88 h 0.664 v 5.288 h 2.424 v 0.592 z m 4.512003,0 v -5.88 h 3.328 v 0.584 h -2.664 v 1.944 h 2.152 v 0.592 h -2.152 v 2.168 h 2.664 v 0.592 z m 6.104003,0 v -5.296 h -1.416 v -0.584 h 3.488 v 0.584 h -1.416 v 5.296 z m 4.800003,0 v -5.296 h -1.416 v -0.584 h 3.488 v 0.584 h -1.416 v 5.296 z m 3.496004,0 v -5.88 h 3.328 v 0.584 h -2.664 v 1.944 h 2.152 v 0.592 h -2.152 v 2.168 h 2.664 v 0.592 z m 4.736003,0 v -5.88 h 1.848 q 0.224,0 0.448,0.048 0.224,0.04 0.416,0.152 0.192,0.112 0.344,0.288 0.152,0.168 0.24,0.376 0.088,0.2 0.12,0.424 0.04,0.224 0.04,0.448 0,0.28 -0.064,0.568 -0.056,0.28 -0.216,0.52 -0.152,0.24 -0.4,0.4 -0.248,0.16 -0.528,0.216 l 1.336,2.44 h -0.736 l -1.32,-2.416 h -0.864 v 2.416 z m 1.848,-3 q 0.144,0 0.28,-0.032 0.136,-0.04 0.248,-0.12 0.12,-0.08 0.2,-0.192 0.088,-0.12 0.136,-0.248 0.048,-0.136 0.064,-0.272 0.016,-0.144 0.016,-0.28 0,-0.144 -0.016,-0.28 -0.016,-0.144 -0.064,-0.272 -0.048,-0.136 -0.136,-0.248 -0.08,-0.12 -0.2,-0.2 -0.112,-0.08 -0.248,-0.112 -0.136,-0.04 -0.28,-0.04 h -1.184 v 2.296 z m 4.640003,3.064 q -0.216,0 -0.432,-0.032 -0.208,-0.024 -0.416,-0.096 -0.2,-0.08 -0.376,-0.208 -0.176,-0.128 -0.296,-0.304 -0.12,-0.176 -0.184,-0.384 -0.064,-0.208 -0.064,-0.424 v -0.056 h 0.664 v 0.032 q 0,0.2 0.088,0.384 0.096,0.184 0.256,0.304 0.168,0.112 0.36,0.152 0.2,0.04 0.4,0.04 0.2,0 0.4,-0.04 0.208,-0.048 0.368,-0.168 0.16,-0.128 0.248,-0.312 0.096,-0.192 0.096,-0.4 0,-0.216 -0.112,-0.416 -0.104,-0.2 -0.272,-0.336 -0.168,-0.144 -0.368,-0.232 -0.2,-0.096 -0.408,-0.176 -0.2,-0.088 -0.4,-0.176 -0.192,-0.096 -0.376,-0.216 -0.184,-0.12 -0.344,-0.272 -0.16,-0.152 -0.28,-0.336 -0.112,-0.184 -0.176,-0.4 -0.064,-0.216 -0.064,-0.432 0,-0.216 0.056,-0.424 0.056,-0.208 0.168,-0.384 0.112,-0.184 0.28,-0.32 0.168,-0.144 0.36,-0.224 0.2,-0.088 0.408,-0.12 0.216,-0.032 0.432,-0.032 0.208,0 0.416,0.032 0.216,0.024 0.408,0.104 0.2,0.08 0.368,0.216 0.168,0.128 0.28,0.304 0.12,0.176 0.176,0.384 0.056,0.2 0.056,0.408 v 0.056 h -0.664 v -0.032 q 0,-0.192 -0.08,-0.368 -0.08,-0.184 -0.232,-0.304 -0.152,-0.12 -0.344,-0.16 -0.192,-0.048 -0.384,-0.048 -0.192,0 -0.392,0.048 -0.192,0.048 -0.344,0.176 -0.152,0.12 -0.232,0.312 -0.08,0.184 -0.08,0.376 0,0.224 0.104,0.424 0.112,0.2 0.272,0.344 0.168,0.136 0.368,0.232 0.208,0.088 0.408,0.176 0.2,0.08 0.4,0.176 0.2,0.088 0.384,0.208 0.184,0.12 0.344,0.272 0.16,0.152 0.272,0.336 0.12,0.184 0.184,0.4 0.064,0.208 0.064,0.424 0,0.224 -0.064,0.44 -0.056,0.208 -0.176,0.392 -0.12,0.184 -0.296,0.32 -0.176,0.136 -0.376,0.216 -0.2,0.08 -0.424,0.112 -0.216,0.032 -0.432,0.032 z"
       id="path7" />
  </g>
  <g
     id="text3"
     style="font-size:4px;line-height:1;font-family:'Adwaita Mono';-inkscape-font-specification:'Adwaita Mono';letter-spacing:0px;word-spacing:0px;fill:#ffcc00;stroke-width:1.99937;stroke-linecap:round;stroke-linejoin:round;paint-order:stroke markers fill"
     transform="rotate(-90)"
     aria-label="M.S.&#10;Horst">
    <path
       d="M -93.74,11.616669 V 8.6766687 h 0.492 l 0.448,2.2480003 0.448,-2.2480003 h 0.492 v 2.9400003 h -0.32 v -0.588 q 0,-0.256 0.004,-0.512 0.004,-0.26 0.008,-0.516 l 0.008,-0.2960003 q 0.004,-0.164 0.004,-0.328 0.004,-0.168 0.004,-0.336 l -0.512,2.5760003 h -0.272 l -0.512,-2.5760003 q 0,0.168 0,0.336 0.004,0.164 0.008,0.328 l 0.008,0.2960003 q 0.004,0.256 0.008,0.516 0.004,0.256 0.004,0.512 v 0.588 z m 3.340002,0.032 q -0.064,0 -0.124,-0.02 -0.06,-0.016 -0.108,-0.06 -0.044,-0.048 -0.064,-0.108 -0.016,-0.06 -0.016,-0.124 0,-0.064 0.016,-0.124 0.02,-0.06 0.064,-0.104 0.048,-0.048 0.108,-0.064 0.06,-0.02 0.124,-0.02 0.064,0 0.124,0.02 0.06,0.016 0.104,0.064 0.048,0.044 0.064,0.104 0.02,0.06 0.02,0.124 0,0.064 -0.02,0.124 -0.016,0.06 -0.064,0.108 -0.044,0.044 -0.104,0.06 -0.06,0.02 -0.124,0.02 z m 2.396001,0 q -0.108,0 -0.216,-0.016 -0.104,-0.012 -0.208,-0.048 -0.1,-0.04 -0.188,-0.104 -0.088,-0.064 -0.148,-0.152 -0.06,-0.088 -0.092,-0.192 -0.032,-0.104 -0.032,-0.212 v -0.028 h 0.332 v 0.016 q 0,0.1 0.044,0.192 0.048,0.092 0.128,0.152 0.084,0.056 0.18,0.076 0.1,0.02 0.2,0.02 0.1,0 0.2,-0.02 0.104,-0.024 0.184,-0.084 0.08,-0.064 0.124,-0.156 0.048,-0.096 0.048,-0.2 0,-0.108 -0.056,-0.208 -0.052,-0.1 -0.136,-0.168 -0.084,-0.072 -0.184,-0.116 -0.1,-0.048 -0.204,-0.088 -0.1,-0.044 -0.2,-0.088 -0.096,-0.048 -0.188,-0.108 -0.092,-0.06 -0.172,-0.1360003 -0.08,-0.076 -0.14,-0.168 -0.056,-0.092 -0.088,-0.2 -0.032,-0.108 -0.032,-0.216 0,-0.108 0.028,-0.212 0.028,-0.104 0.084,-0.192 0.056,-0.092 0.14,-0.16 0.084,-0.072 0.18,-0.112 0.1,-0.044 0.204,-0.06 0.108,-0.016 0.216,-0.016 0.104,0 0.208,0.016 0.108,0.012 0.204,0.052 0.1,0.04 0.184,0.108 0.084,0.064 0.14,0.152 0.06,0.088 0.088,0.192 0.028,0.1 0.028,0.204 v 0.028 h -0.332 v -0.016 q 0,-0.096 -0.04,-0.184 -0.04,-0.092 -0.116,-0.152 -0.076,-0.06 -0.172,-0.08 -0.096,-0.024 -0.192,-0.024 -0.096,0 -0.196,0.024 -0.096,0.024 -0.172,0.088 -0.076,0.06 -0.116,0.156 -0.04,0.092 -0.04,0.188 0,0.112 0.052,0.212 0.056,0.1 0.136,0.172 0.084,0.068 0.184,0.116 0.104,0.044 0.204,0.088 0.1,0.04 0.2,0.088 0.1,0.044 0.192,0.104 0.092,0.06 0.172,0.136 0.08,0.076 0.136,0.168 0.06,0.092 0.092,0.2 0.032,0.104 0.032,0.212 0,0.112 -0.032,0.22 -0.028,0.104 -0.088,0.196 -0.06,0.092 -0.148,0.16 -0.088,0.068 -0.188,0.108 -0.1,0.04 -0.212,0.056 -0.108,0.016 -0.216,0.016 z m 2.404002,0 q -0.064,0 -0.124,-0.02 -0.06,-0.016 -0.108,-0.06 -0.044,-0.048 -0.064,-0.108 -0.016,-0.06 -0.016,-0.124 0,-0.064 0.016,-0.124 0.02,-0.06 0.064,-0.104 0.048,-0.048 0.108,-0.064 0.06,-0.02 0.124,-0.02 0.064,0 0.124,0.02 0.06,0.016 0.104,0.064 0.048,0.044 0.064,0.104 0.02,0.06 0.02,0.124 0,0.064 -0.02,0.124 -0.016,0.06 -0.064,0.108 -0.044,0.044 -0.104,0.06 -0.06,0.02 -0.124,0.02 z"
       id="path4" />
    <path
       d="m -93.648,15.616669 v -2.94 h 0.332 v 1.276 h 1.032 v -1.276 h 0.332 v 2.94 h -0.332 v -1.372 h -1.032 v 1.372 z m 3.248002,0.032 q -0.116,0 -0.236,-0.02 -0.116,-0.02 -0.22,-0.072 -0.104,-0.052 -0.192,-0.136 -0.084,-0.084 -0.14,-0.188 -0.052,-0.104 -0.072,-0.22 -0.02,-0.12 -0.02,-0.236 v -0.4 q 0,-0.116 0.02,-0.232 0.02,-0.12 0.072,-0.224 0.056,-0.104 0.14,-0.188 0.088,-0.084 0.192,-0.136 0.104,-0.052 0.22,-0.072 0.12,-0.02 0.236,-0.02 0.116,0 0.232,0.02 0.12,0.02 0.224,0.072 0.104,0.052 0.188,0.136 0.088,0.084 0.14,0.188 0.056,0.104 0.076,0.224 0.02,0.116 0.02,0.232 v 0.4 q 0,0.116 -0.02,0.236 -0.02,0.116 -0.076,0.22 -0.052,0.104 -0.14,0.188 -0.084,0.084 -0.188,0.136 -0.104,0.052 -0.224,0.072 -0.116,0.02 -0.232,0.02 z m 0,-0.296 q 0.076,0 0.148,-0.012 0.076,-0.016 0.144,-0.052 0.068,-0.036 0.116,-0.092 0.052,-0.056 0.084,-0.124 0.032,-0.072 0.044,-0.144 0.012,-0.076 0.012,-0.152 v -0.4 q 0,-0.076 -0.012,-0.148 -0.012,-0.076 -0.044,-0.144 -0.032,-0.072 -0.084,-0.128 -0.048,-0.056 -0.116,-0.092 -0.068,-0.036 -0.144,-0.048 -0.072,-0.016 -0.148,-0.016 -0.076,0 -0.152,0.016 -0.072,0.012 -0.14,0.048 -0.068,0.036 -0.12,0.092 -0.048,0.056 -0.08,0.128 -0.032,0.068 -0.044,0.144 -0.012,0.072 -0.012,0.148 v 0.4 q 0,0.076 0.012,0.152 0.012,0.072 0.044,0.144 0.032,0.068 0.08,0.124 0.052,0.056 0.12,0.092 0.068,0.036 0.14,0.052 0.076,0.012 0.152,0.012 z m 1.828001,0.264 v -2.08 h 0.332 v 0.56 q 0.04,-0.104 0.104,-0.192 0.068,-0.088 0.152,-0.156 0.084,-0.068 0.184,-0.116 0.1,-0.048 0.204,-0.076 0.104,-0.032 0.212,-0.04 0.108,-0.012 0.22,-0.012 v 0.324 q -0.072,0 -0.144,0.004 -0.072,0.004 -0.144,0.012 -0.068,0.008 -0.14,0.024 -0.068,0.016 -0.14,0.04 -0.068,0.02 -0.132,0.052 -0.064,0.028 -0.124,0.068 -0.056,0.04 -0.108,0.096 -0.048,0.052 -0.084,0.116 -0.032,0.06 -0.048,0.132 -0.012,0.068 -0.012,0.14 v 1.104 z m 2.968002,0.032 q -0.096,0 -0.192,-0.008 -0.092,-0.008 -0.184,-0.032 -0.092,-0.024 -0.18,-0.064 -0.084,-0.044 -0.152,-0.108 -0.068,-0.068 -0.108,-0.156 -0.036,-0.092 -0.036,-0.184 v -0.02 h 0.328 v 0.004 q 0,0.056 0.028,0.104 0.032,0.048 0.076,0.08 0.044,0.028 0.096,0.048 0.052,0.016 0.104,0.028 0.056,0.008 0.108,0.012 0.056,0.004 0.112,0.004 0.056,0 0.108,-0.004 0.056,-0.004 0.108,-0.012 0.056,-0.012 0.108,-0.032 0.052,-0.02 0.096,-0.052 0.048,-0.032 0.076,-0.08 0.028,-0.052 0.028,-0.104 0,-0.064 -0.04,-0.12 -0.036,-0.056 -0.092,-0.088 -0.056,-0.032 -0.12,-0.052 -0.06,-0.02 -0.124,-0.032 -0.06,-0.016 -0.124,-0.032 -0.06,-0.016 -0.124,-0.032 -0.06,-0.02 -0.124,-0.04 -0.06,-0.02 -0.12,-0.044 -0.06,-0.024 -0.116,-0.052 -0.056,-0.032 -0.108,-0.068 -0.052,-0.04 -0.1,-0.084 -0.044,-0.048 -0.076,-0.104 -0.032,-0.056 -0.052,-0.116 -0.016,-0.064 -0.016,-0.128 0,-0.092 0.032,-0.18 0.036,-0.092 0.1,-0.16 0.064,-0.072 0.144,-0.116 0.084,-0.048 0.172,-0.072 0.092,-0.028 0.184,-0.036 0.096,-0.012 0.188,-0.012 0.092,0 0.184,0.008 0.092,0.008 0.18,0.036 0.092,0.024 0.172,0.068 0.084,0.04 0.148,0.108 0.064,0.068 0.1,0.156 0.036,0.084 0.036,0.176 v 0.02 h -0.328 v -0.008 q 0,-0.052 -0.028,-0.096 -0.024,-0.048 -0.068,-0.08 -0.04,-0.032 -0.092,-0.048 -0.048,-0.02 -0.1,-0.028 -0.048,-0.012 -0.1,-0.016 -0.052,-0.004 -0.104,-0.004 -0.052,0 -0.104,0.004 -0.052,0.004 -0.104,0.016 -0.052,0.008 -0.104,0.028 -0.048,0.02 -0.088,0.056 -0.04,0.032 -0.068,0.08 -0.024,0.048 -0.024,0.1 0,0.068 0.04,0.128 0.044,0.056 0.104,0.088 0.06,0.032 0.128,0.052 0.068,0.016 0.132,0.032 l 0.008,0.004 q 0.1,0.024 0.2,0.052 0.1,0.028 0.196,0.064 0.1,0.032 0.192,0.084 0.092,0.048 0.168,0.12 0.076,0.072 0.12,0.168 0.048,0.096 0.048,0.2 0,0.096 -0.04,0.188 -0.036,0.088 -0.104,0.16 -0.064,0.068 -0.152,0.112 -0.084,0.044 -0.176,0.072 -0.092,0.024 -0.188,0.032 -0.096,0.012 -0.192,0.012 z m 3.252001,-0.032 h -0.432 q -0.092,0 -0.184,-0.016 -0.088,-0.016 -0.172,-0.056 -0.08,-0.04 -0.144,-0.104 -0.064,-0.064 -0.104,-0.144 -0.04,-0.084 -0.056,-0.172 -0.016,-0.092 -0.016,-0.184 v -1.112 h -0.588 v -0.292 h 0.588 v -0.86 h 0.332 v 0.86 h 0.776 v 0.292 h -0.776 v 1.112 q 0,0.076 0.016,0.148 0.02,0.072 0.064,0.128 0.048,0.056 0.12,0.08 0.072,0.024 0.144,0.024 h 0.432 z"
       id="path5" />
  </g>
</svg>
