<?xml version="1.0" encoding="UTF-8" standalone="no"?>
<!-- Created with Inkscape (http://www.inkscape.org/) -->

<svg
   width="512"
   height="512"
   viewBox="0 0 512 512"
   version="1.1"
   id="svg1"
   xmlns="http://www.w3.org/2000/svg"
   xmlns:svg="http://www.w3.org/2000/svg">
  <defs
     id="defs1" />
  <path
     id="path1"
     style="fill:#1a1a1a;stroke-width:3.695;stroke-linecap:square;stroke-dasharray:none;paint-order:stroke markers fill"
     d="M 256,0 A 150,150 0 0 0 106,150 150,150 0 0 0 198.06445,288.36133 229.30486,257.65976 0 0 0 27.835938,512 H 484.16406 A 229.30486,257.65976 0 0 0 313.93555,288.35938 150,150 0 0 0 406,150 150,150 0 0 0 256,0 Z" />
  <g
     id="g4"
     transform="translate(0,-35.691269)">
    <path
       style="fill:none;fill-opacity:1;stroke:#ffffff;stroke-width:3.78;stroke-linecap:round;stroke-dasharray:none;stroke-opacity:1;paint-order:stroke markers fill"
       d="m 159.81839,168.53575 38.35642,-0.58115"
       id="path3" />
    <path
       style="fill:none;fill-opacity:1;stroke:#ffffff;stroke-width:3.78;stroke-linecap:round;stroke-dasharray:none;stroke-opacity:1;paint-order:stroke markers fill"
       d="m 309.8219,168.53575 38.35642,-0.58115"
       id="path3-1" />
  </g>
  <path
     style="fill:none;fill-opacity:1;stroke:#ffffff;stroke-width:3.78;stroke-linecap:round;stroke-dasharray:none;stroke-opacity:1;paint-order:stroke markers fill"
     d="m 178.997,194.30873 c 52.66963,34.66667 102.67067,34.66667 150.00311,0"
     id="path4" />
</svg>
