<?xml version="1.0" encoding="UTF-8" standalone="no"?>
<!-- Created with Inkscape (http://www.inkscape.org/) -->

<svg
   width="512"
   height="512"
   viewBox="0 0 512 512"
   version="1.1"
   id="svg1"
   xmlns="http://www.w3.org/2000/svg"
   xmlns:svg="http://www.w3.org/2000/svg">
  <defs
     id="defs1" />
  <path
     id="path1"
     style="fill:#1a1a1a;stroke-width:3.69514;stroke-linecap:square;paint-order:stroke markers fill"
     d="M 256,0 A 150,150 0 0 0 106,150 150,150 0 0 0 198.06445,288.36133 229.30486,257.65976 0 0 0 27.835942,512 H 484.16406 A 229.30486,257.65976 0 0 0 313.93555,288.35938 150,150 0 0 0 406,150 150,150 0 0 0 256,0 Z" />
  <path
     style="fill:none;fill-opacity:1;stroke:#ffffff;stroke-width:3.78;stroke-linecap:round;stroke-dasharray:none;stroke-opacity:1;paint-order:stroke markers fill"
     d="m 159.81839,132.84448 38.35642,-0.58115"
     id="path3" />
  <path
     style="fill:none;fill-opacity:1;stroke:#ffffff;stroke-width:3.78;stroke-linecap:round;stroke-dasharray:none;stroke-opacity:1;paint-order:stroke markers fill"
     d="m 309.8219,132.84448 38.35642,-0.58115"
     id="path3-1" />
  <path
     style="fill:none;fill-opacity:1;stroke:#ffffff;stroke-width:3.78;stroke-linecap:round;stroke-dasharray:none;stroke-opacity:1;paint-order:stroke markers fill"
     d="m 178.997,220.22433 c 52.66963,-34.66667 102.67067,-34.66667 150.00311,0"
     id="path4" />
  <path
     id="path5-2"
     style="fill:#ffffff;fill-opacity:1;stroke:none;stroke-width:2;stroke-linecap:round;stroke-linejoin:round;paint-order:stroke markers fill"
     d="m 198.17481,150.26333 c -22.96346,41.80011 22.96345,41.80011 0,0 z" />
</svg>
