<?xml version="1.0" encoding="UTF-8"?>
<svg id="Layer_1" data-name="Layer 1" xmlns="http://www.w3.org/2000/svg" width="77.92" height="396.79" viewBox="0 0 77.92 396.79">
  <polygon id="rect3" points="0 0 5.92 1.97 5.92 394.79 0 396.79 0 0" style="fill: #563000;"/>
  <polygon id="rect3-2" points="73.37 24.47 77.92 25.99 77.92 370.52 73.37 372.06 73.37 24.47" style="fill: #563000;"/>
  <path id="rect4" d="M0,0l5.92,16.8,67.45,20.79,4.55-11.6L0,0Z" style="fill: #6a3c00;"/>
  <polygon id="rect1" points="5.92 16.79 73.37 37.59 73.37 372.06 5.92 394.79 5.92 16.79" style="fill: #7d4800;"/>
  <polygon id="rect2" points="17.42 67.57 32.51 70.98 32.51 325.69 17.42 329.15 17.42 67.57" style="fill: #005c7d;"/>
  <polygon id="rect3-0" points="11.73 51.61 17.42 53.04 17.42 343.68 11.73 345.13 11.73 51.61" style="fill: #563000;"/>
  <polygon id="rect3-0-5" points="32.51 56.83 37.8 58.16 37.8 338.49 32.51 339.84 32.51 56.83" style="fill: #563000;"/>
  <path id="rect4-4" d="M11.73,51.61l5.69,15.96,15.09,3.41,5.29-12.82s-26.07-6.55-26.07-6.55Z" style="fill: #6a3c00;"/>
  <path id="rect4-4-6" d="M11.73,345.13l5.69-15.98,15.09-3.46,5.29,12.8s-26.07,6.64-26.07,6.64Z" style="fill: #6a3c00;"/>
  <polygon id="rect2-8" points="50.6 75.07 64.02 78.1 64.02 318.46 50.6 321.54 50.6 75.07" style="fill: #005c7d;"/>
  <polygon id="rect3-0-1" points="45.55 60.11 50.6 61.38 50.6 335.23 45.55 336.52 45.55 60.11" style="fill: #563000;"/>
  <polygon id="rect3-0-5-3" points="64.02 64.75 68.74 65.93 68.74 330.61 64.02 331.81 64.02 64.75" style="fill: #563000;"/>
  <path id="rect4-4-1" d="M45.55,60.11l5.05,14.96,13.42,3.03,4.72-12.17-23.18-5.83h0Z" style="fill: #6a3c00;"/>
  <path id="rect4-4-6-1" d="M45.55,336.52l5.05-14.98,13.42-3.08,4.72,12.15-23.18,5.91h0Z" style="fill: #6a3c00;"/>
  <polygon id="rect5" points="59.22 198.29 68.74 198.27 68.74 231.36 59.22 231.97 59.22 198.29" style="fill: #7d4800;"/>
  <polygon id="rect3-0-1-5" points="56.79 191.52 61.63 191.58 61.63 245.23 56.79 245.67 56.79 191.52" style="fill: #6a3c00;"/>
  <path id="rect4-4-1-3" d="M56.79,191.52l4.84,13.47,7.11-.1v-13.23l-11.95-.13h0Z" style="fill: #563000;"/>
  <path id="rect4-4-1-3-9" d="M56.79,245.67l4.84-13.85,7.11-.46v13.23l-11.95,1.08h0Z" style="fill: #563000;"/>
  <path id="rect6" d="M57.05,212.19l9.07-.25c1.23-.03,2.22,2.74,2.22,6.2h0c0,3.46-.99,6.31-2.22,6.37l-9.07.47c-1.28.07-2.32-2.75-2.32-6.3h0c0-3.55,1.04-6.45,2.32-6.48h0Z" style="fill: #666;"/>
</svg>