<?xml version="1.0" encoding="UTF-8" standalone="no"?>
<!-- Created with Inkscape (http://www.inkscape.org/) -->

<svg
   width="52.916668mm"
   height="52.916668mm"
   viewBox="0 0 52.916668 52.916668"
   version="1.1"
   id="svg1"
   inkscape:version="1.4.2 (ebf0e940d0, 2025-05-08)"
   sodipodi:docname="logo.svg"
   xmlns:inkscape="http://www.inkscape.org/namespaces/inkscape"
   xmlns:sodipodi="http://sodipodi.sourceforge.net/DTD/sodipodi-0.dtd"
   xmlns="http://www.w3.org/2000/svg"
   xmlns:svg="http://www.w3.org/2000/svg">
  <sodipodi:namedview
     id="namedview1"
     pagecolor="#ffffff"
     bordercolor="#000000"
     borderopacity="0.25"
     inkscape:showpageshadow="2"
     inkscape:pageopacity="0.0"
     inkscape:pagecheckerboard="0"
     inkscape:deskcolor="#d1d1d1"
     inkscape:document-units="mm"
     inkscape:zoom="2.2753006"
     inkscape:cx="95.152264"
     inkscape:cy="88.120226"
     inkscape:window-width="1920"
     inkscape:window-height="1131"
     inkscape:window-x="0"
     inkscape:window-y="0"
     inkscape:window-maximized="1"
     inkscape:current-layer="g1" />
  <defs
     id="defs1" />
  <g
     inkscape:label="Layer 1"
     inkscape:groupmode="layer"
     id="layer1"
     transform="translate(-53.940197,-67.425247)">
    <g
       id="g1"
       transform="translate(-25.135415,-26.458336)">
      <g
         id="g2"
         transform="translate(-26.458335,-26.458333)">
        <path
           id="path1"
           style="vector-effect:non-scaling-stroke;fill:#4d4d4d;stroke-width:0.264583;stroke-linecap:round;-inkscape-stroke:hairline;paint-order:stroke markers fill"
           d="M 131.99228,120.34191 A 26.458332,26.458332 0 0 1 105.53395,146.80025 26.458332,26.458332 0 0 1 79.075614,120.34191 26.458332,26.458332 0 0 1 105.53395,93.883583 26.458332,26.458332 0 0 1 131.99228,120.34191 Z" />
        <circle
           style="fill:none;stroke:#000000;stroke-width:0.529167;stroke-linecap:round;stroke-linejoin:round;stroke-dasharray:none;stroke-opacity:1;paint-order:stroke markers fill"
           id="path2-3-1"
           cx="105.53394"
           cy="120.34192"
           r="21.166666" />
        <circle
           style="fill:none;fill-opacity:1;stroke:#000000;stroke-width:0.529167;stroke-linecap:round;stroke-linejoin:round;stroke-dasharray:none;stroke-opacity:1;paint-order:stroke markers fill"
           id="path2-3-1-3"
           cx="111.09019"
           cy="120.42415"
           r="18.520834" />
        <circle
           style="fill:none;stroke:#000000;stroke-width:0.529167;stroke-linecap:round;stroke-linejoin:round;stroke-dasharray:none;stroke-opacity:1;paint-order:stroke markers fill"
           id="path2"
           cx="103.41726"
           cy="120.34192"
           r="7.9375" />
        <circle
           style="fill:none;stroke:#000000;stroke-width:0.529167;stroke-linecap:round;stroke-linejoin:round;stroke-dasharray:none;stroke-opacity:1;paint-order:stroke markers fill"
           id="path2-3"
           cx="105.53394"
           cy="120.34192"
           r="10.583333" />
        <path
           id="path1-9-7-6-4-3-5-8"
           style="vector-effect:non-scaling-stroke;fill:#9d0040;stroke-width:0.052917;stroke-linecap:round;-inkscape-stroke:hairline;paint-order:stroke markers fill"
           d="m 110.82561,120.34192 a 5.2916665,5.2916665 0 0 1 -5.29166,5.29166 5.2916665,5.2916665 0 0 1 -5.29167,-5.29166 5.2916665,5.2916665 0 0 1 5.29167,-5.29167 5.2916665,5.2916665 0 0 1 5.29166,5.29167 z" />
        <path
           id="path1-9-7-6-4-3-5-8-1"
           style="vector-effect:non-scaling-stroke;fill:#1a1a1a;stroke-width:0.0132292;stroke-linecap:round;-inkscape-stroke:hairline;paint-order:stroke markers fill"
           d="m 106.85686,120.34192 a 1.3229166,1.3229166 0 0 1 -1.32291,1.32291 1.3229166,1.3229166 0 0 1 -1.32292,-1.32291 1.3229166,1.3229166 0 0 1 1.32292,-1.32292 1.3229166,1.3229166 0 0 1 1.32291,1.32292 z" />
      </g>
    </g>
  </g>
</svg>
