<?xml version="1.0" encoding="UTF-8" standalone="no"?>
<!-- Created with Inkscape (http://www.inkscape.org/) -->

<svg
   width="52.916668mm"
   height="52.916668mm"
   viewBox="0 0 52.916668 52.916668"
   version="1.1"
   id="svg1"
   inkscape:version="1.4.2 (ebf0e940d0, 2025-05-08)"
   sodipodi:docname="logo.svg"
   xmlns:inkscape="http://www.inkscape.org/namespaces/inkscape"
   xmlns:sodipodi="http://sodipodi.sourceforge.net/DTD/sodipodi-0.dtd"
   xmlns="http://www.w3.org/2000/svg"
   xmlns:svg="http://www.w3.org/2000/svg">
  <sodipodi:namedview
     id="namedview1"
     pagecolor="#ffffff"
     bordercolor="#000000"
     borderopacity="0.25"
     inkscape:showpageshadow="2"
     inkscape:pageopacity="0.0"
     inkscape:pagecheckerboard="0"
     inkscape:deskcolor="#d1d1d1"
     inkscape:document-units="mm"
     inkscape:zoom="3.2177609"
     inkscape:cx="74.741413"
     inkscape:cy="97.427996"
     inkscape:window-width="1920"
     inkscape:window-height="1131"
     inkscape:window-x="0"
     inkscape:window-y="0"
     inkscape:window-maximized="1"
     inkscape:current-layer="layer1" />
  <defs
     id="defs1" />
  <g
     inkscape:label="Layer 1"
     inkscape:groupmode="layer"
     id="layer1"
     transform="translate(-53.940197,-67.425247)">
    <circle
       style="vector-effect:non-scaling-stroke;fill:#4d4d4d;stroke:none;stroke-width:0.264583;stroke-linecap:round;-inkscape-stroke:hairline;paint-order:stroke markers fill"
       id="path1"
       cx="80.398529"
       cy="93.883583"
       r="26.458332" />
    <circle
       style="fill:none;stroke:#000000;stroke-width:0.265;stroke-linecap:round;stroke-dasharray:6.36, 6.36;stroke-dashoffset:0;stroke-opacity:1;paint-order:stroke markers fill"
       id="path1-9"
       cx="79.676918"
       cy="-94.589401"
       r="23.8125"
       transform="rotate(99.325995)" />
    <circle
       style="fill:none;stroke:#000000;stroke-width:0.265;stroke-linecap:round;stroke-opacity:1;paint-order:stroke markers fill;stroke-dasharray:6.35999966,6.35999966;stroke-dashoffset:0"
       id="path1-9-7"
       cx="80.398529"
       cy="93.883583"
       r="18.520834" />
    <circle
       style="fill:none;stroke:#000000;stroke-width:0.265;stroke-linecap:round;stroke-dasharray:6.36, 6.36;stroke-dashoffset:0;stroke-opacity:1;paint-order:stroke markers fill"
       id="path1-9-7-6"
       cx="-101.80981"
       cy="70.142433"
       r="15.875"
       transform="rotate(-95.99061)" />
    <circle
       style="fill:none;stroke:#000000;stroke-width:0.265;stroke-linecap:round;stroke-dasharray:6.36, 6.36;stroke-dashoffset:0;stroke-opacity:1;paint-order:stroke markers fill"
       id="path1-9-7-6-4"
       cx="-123.03278"
       cy="-11.654116"
       r="13.229167"
       transform="rotate(-136.00536)" />
    <circle
       style="fill:none;stroke:#000000;stroke-width:0.265;stroke-linecap:round;stroke-dasharray:6.36, 6.36;stroke-dashoffset:0;stroke-opacity:1;paint-order:stroke markers fill"
       id="path1-9-7-6-4-3"
       cx="2.5520289"
       cy="123.60355"
       r="10.583333"
       transform="rotate(-39.38033)" />
    <circle
       style="fill:none;stroke:#000000;stroke-width:0.265;stroke-linecap:round;stroke-opacity:1;paint-order:stroke markers fill;stroke-dasharray:6.35999966,6.35999966;stroke-dashoffset:0"
       id="path1-9-7-6-4-3-5"
       cx="80.398529"
       cy="93.883583"
       r="7.9375" />
    <circle
       style="vector-effect:non-scaling-stroke;fill:#9d0040;stroke:none;stroke-width:0.052917;stroke-linecap:round;stroke-opacity:1;-inkscape-stroke:hairline;paint-order:stroke markers fill;fill-opacity:1"
       id="path1-9-7-6-4-3-5-8"
       cx="80.398529"
       cy="93.883583"
       r="5.2916665" />
    <circle
       style="vector-effect:non-scaling-stroke;fill:#1a1a1a;fill-opacity:1;stroke:none;stroke-width:0.0132292;stroke-linecap:round;stroke-opacity:1;-inkscape-stroke:hairline;paint-order:stroke markers fill"
       id="path1-9-7-6-4-3-5-8-1"
       cx="80.398529"
       cy="93.883583"
       r="1.3229166" />
    <circle
       style="fill:none;stroke:#000000;stroke-width:0.265;stroke-linecap:round;stroke-dasharray:6.36, 6.36;stroke-dashoffset:0;stroke-opacity:1;paint-order:stroke markers fill"
       id="path1-9-7-7"
       cx="29.951365"
       cy="-119.95995"
       r="21.166666"
       transform="rotate(125.40976)" />
    <path
       style="font-size:17.6389px;line-height:1.1;font-family:Carlito;-inkscape-font-specification:Carlito;text-align:center;letter-spacing:0px;word-spacing:0px;text-anchor:middle;fill:#9d0040;stroke:#000000;stroke-width:0.529167;stroke-linecap:round;paint-order:stroke markers fill"
       d="m 62.867291,83.080108 q 0.111966,0.198093 0.198093,0.404799 0.09474,0.206705 0.180868,0.422024 0.08613,-0.223931 0.172255,-0.430637 0.09474,-0.206706 0.198093,-0.396186 l 3.996314,-6.93326 q 0.103353,-0.180867 0.223931,-0.215318 0.120578,-0.04306 0.327284,-0.04306 h 1.154108 V 87.205612 H 67.931585 V 78.94599 q 0,-0.172255 0.0086,-0.378961 0.01723,-0.215318 0.03445,-0.430637 l -4.039377,7.096902 q -0.198093,0.353122 -0.568441,0.353122 h -0.223932 q -0.370348,0 -0.568441,-0.353122 l -4.134117,-7.088289 q 0.05168,0.430637 0.05168,0.800985 v 8.259622 H 57.113978 V 75.888466 h 1.154108 q 0.206706,0 0.318671,0.04306 0.120579,0.03445 0.232544,0.223931 l 4.04799,6.924647 z m 13.547847,2.885269 q 0.680407,0 1.214397,-0.232544 0.542603,-0.241157 0.912951,-0.663181 0.370348,-0.430638 0.559829,-1.016304 0.198093,-0.585667 0.198093,-1.291912 v -6.87297 h 1.567519 v 6.87297 q 0,0.981853 -0.310059,1.817289 -0.310058,0.835436 -0.887112,1.446941 -0.568441,0.611505 -1.395265,0.964628 -0.826823,0.344509 -1.860353,0.344509 -1.033529,0 -1.860353,-0.344509 -0.81821,-0.353123 -1.395264,-0.964628 -0.577054,-0.611505 -0.887113,-1.446941 -0.310059,-0.835436 -0.310059,-1.817289 v -6.87297 h 1.56752 v 6.864357 q 0,0.706245 0.18948,1.300525 0.198093,0.585666 0.568441,1.016304 0.370348,0.422024 0.904339,0.663181 0.542602,0.232544 1.223009,0.232544 z m 12.522931,-8.294073 q -0.129191,0.241157 -0.353123,0.241157 -0.129191,0 -0.310059,-0.129191 -0.172254,-0.137804 -0.430637,-0.292834 -0.249769,-0.163642 -0.611505,-0.292833 -0.353122,-0.137804 -0.852661,-0.137804 -0.473701,0 -0.835437,0.137804 -0.353122,0.129191 -0.594279,0.370348 -0.232544,0.232544 -0.353122,0.551216 -0.120579,0.310059 -0.120579,0.671794 0,0.473701 0.215319,0.78376 0.223931,0.310058 0.577054,0.53399 0.361735,0.215318 0.81821,0.37896 0.456476,0.163643 0.930177,0.335898 0.473701,0.172254 0.930176,0.396186 0.456476,0.215318 0.809598,0.551215 0.361735,0.327285 0.577054,0.809598 0.223931,0.482314 0.223931,1.179946 0,0.749309 -0.241156,1.403878 -0.241157,0.645956 -0.706245,1.128269 -0.456476,0.482314 -1.12827,0.757922 -0.671794,0.275608 -1.533069,0.275608 -1.042142,0 -1.920642,-0.396187 -0.869887,-0.404799 -1.481392,-1.085205 l 0.456476,-0.740696 q 0.06029,-0.09474 0.146417,-0.146417 0.09474,-0.06029 0.215318,-0.06029 0.163642,0 0.361735,0.180867 0.206706,0.172255 0.508152,0.387574 0.301446,0.206706 0.723471,0.387573 0.430637,0.172255 1.024916,0.172255 0.49954,0 0.887113,-0.146416 0.387574,-0.146417 0.654569,-0.413412 0.275608,-0.266995 0.413411,-0.637343 0.146417,-0.378961 0.146417,-0.835437 0,-0.508151 -0.223931,-0.835436 -0.215319,-0.327284 -0.577054,-0.542603 -0.353123,-0.223931 -0.809598,-0.370348 -0.456476,-0.155029 -0.930177,-0.318671 -0.4737,-0.163642 -0.930176,-0.370348 -0.456475,-0.215319 -0.818211,-0.559829 -0.353122,-0.344509 -0.577054,-0.852661 -0.215318,-0.508152 -0.215318,-1.266074 0,-0.594279 0.223931,-1.154108 0.223932,-0.568441 0.645956,-0.999078 0.430637,-0.43925 1.050755,-0.697632 0.62873,-0.266995 1.438328,-0.266995 0.904338,0 1.653647,0.301446 0.757922,0.301446 1.309137,0.8785 z m 4.246084,9.534308 h -1.56752 V 75.888466 h 1.56752 z m 9.654887,-2.359892 q 0.12058,0 0.22393,0.103353 l 0.62012,0.671794 q -0.61151,0.809598 -1.50723,1.257461 -0.89573,0.447863 -2.14458,0.447863 -1.102427,0 -1.998153,-0.422025 -0.887112,-0.422024 -1.524456,-1.179946 -0.62873,-0.766534 -0.97324,-1.825902 -0.335897,-1.06798 -0.335897,-2.351279 0,-1.283299 0.361736,-2.342666 0.361735,-1.067981 1.016303,-1.834515 0.654569,-0.766534 1.56752,-1.188559 0.912951,-0.422024 2.015387,-0.422024 1.09381,0 1.92064,0.387573 0.83543,0.387574 1.45555,1.050755 l -0.51676,0.723471 q -0.0517,0.07751 -0.12919,0.129191 -0.0775,0.05168 -0.1981,0.05168 -0.14641,0 -0.32728,-0.155029 -0.17226,-0.15503 -0.45648,-0.335897 -0.28422,-0.189481 -0.70624,-0.34451 -0.42203,-0.155029 -1.05076,-0.155029 -0.740694,0 -1.360811,0.301446 -0.611505,0.301446 -1.059368,0.8785 -0.43925,0.568441 -0.689019,1.395264 -0.241157,0.818211 -0.241157,1.860353 0,1.050755 0.258382,1.877578 0.258382,0.826824 0.706245,1.395265 0.447863,0.568441 1.050755,0.869887 0.611505,0.301446 1.309133,0.301446 0.43064,0 0.76654,-0.06029 0.34451,-0.06029 0.62873,-0.180868 0.29283,-0.129191 0.5426,-0.318671 0.25838,-0.198093 0.50815,-0.465088 0.13781,-0.120579 0.267,-0.120579 z"
       id="text1"
       aria-label="MUSIC" />
    <path
       style="font-size:17.6389px;line-height:1.1;font-family:Carlito;-inkscape-font-specification:Carlito;text-align:center;letter-spacing:0px;word-spacing:0px;text-anchor:middle;fill:#9d0040;stroke:#000000;stroke-width:0.529167;stroke-linecap:round;paint-order:stroke markers fill"
       d="m 64.42189,102.59898 q -0.129192,0.24116 -0.353123,0.24116 -0.129191,0 -0.310059,-0.12919 -0.172255,-0.1378 -0.430637,-0.29283 -0.24977,-0.16364 -0.611505,-0.29284 -0.353122,-0.1378 -0.852662,-0.1378 -0.4737,0 -0.835436,0.1378 -0.353122,0.1292 -0.594279,0.37035 -0.232544,0.23255 -0.353123,0.55122 -0.120578,0.31006 -0.120578,0.67179 0,0.4737 0.215319,0.78376 0.223931,0.31006 0.577053,0.53399 0.361736,0.21532 0.818211,0.37896 0.456476,0.16364 0.930177,0.3359 0.473701,0.17225 0.930176,0.39619 0.456475,0.21531 0.809598,0.55121 0.361735,0.32729 0.577054,0.8096 0.223931,0.48231 0.223931,1.17995 0,0.7493 -0.241157,1.40387 -0.241156,0.64596 -0.706245,1.12827 -0.456475,0.48232 -1.128269,0.75792 -0.671794,0.27561 -1.533069,0.27561 -1.042142,0 -1.920642,-0.39618 -0.869887,-0.4048 -1.481392,-1.08521 l 0.456476,-0.7407 q 0.06029,-0.0947 0.146416,-0.14641 0.09474,-0.0603 0.215319,-0.0603 0.163642,0 0.361735,0.18087 0.206706,0.17225 0.508152,0.38757 0.301446,0.2067 0.723471,0.38757 0.430637,0.17226 1.024916,0.17226 0.499539,0 0.887113,-0.14642 0.387573,-0.14642 0.654568,-0.41341 0.275608,-0.267 0.413412,-0.63734 0.146417,-0.37897 0.146417,-0.83544 0,-0.50815 -0.223931,-0.83544 -0.215319,-0.32728 -0.577054,-0.5426 -0.353123,-0.22393 -0.809598,-0.37035 -0.456476,-0.15503 -0.930177,-0.31867 -0.473701,-0.16364 -0.930176,-0.37035 -0.456476,-0.21532 -0.818211,-0.55983 -0.353122,-0.34451 -0.577054,-0.85266 -0.215318,-0.50815 -0.215318,-1.26607 0,-0.59428 0.223931,-1.15411 0.223931,-0.56844 0.645956,-0.99908 0.430637,-0.43925 1.050755,-0.69763 0.62873,-0.26699 1.438328,-0.26699 0.904338,0 1.653647,0.30144 0.757921,0.30145 1.309137,0.8785 z m 9.508469,-1.78283 v 1.30913 h -3.298681 v 10.00801 h -1.576132 v -10.00801 h -3.307294 v -1.30913 z m 10.765931,5.65857 q 0,1.27469 -0.37896,2.33405 -0.370348,1.05937 -1.059368,1.82591 -0.680407,0.76653 -1.645034,1.19717 -0.956015,0.42202 -2.127348,0.42202 -1.162721,0 -2.127348,-0.42202 -0.964627,-0.43064 -1.653647,-1.19717 -0.689019,-0.76654 -1.06798,-1.82591 -0.378961,-1.05936 -0.378961,-2.33405 0,-1.26607 0.378961,-2.32544 0.378961,-1.06798 1.06798,-1.83452 0.68902,-0.77514 1.653647,-1.19717 0.964627,-0.43063 2.127348,-0.43063 1.171333,0 2.127348,0.43063 0.964627,0.42203 1.645034,1.19717 0.68902,0.76654 1.059368,1.83452 0.37896,1.05937 0.37896,2.32544 z m -1.60197,0 q 0,-1.03353 -0.258382,-1.85174 -0.24977,-0.82682 -0.723471,-1.39526 -0.465088,-0.57706 -1.136882,-0.8785 -0.663182,-0.31006 -1.490005,-0.31006 -0.826824,0 -1.498618,0.31006 -0.663181,0.30144 -1.136882,0.8785 -0.473701,0.56844 -0.732083,1.39526 -0.24977,0.81821 -0.24977,1.85174 0,1.03353 0.24977,1.86035 0.258382,0.81821 0.732083,1.39527 0.473701,0.56844 1.136882,0.86988 0.671794,0.30145 1.498618,0.30145 0.826823,0 1.490005,-0.30145 0.671794,-0.30144 1.136882,-0.86988 0.473701,-0.57706 0.723471,-1.39527 0.258382,-0.82682 0.258382,-1.86035 z m 5.05568,0.95601 v 4.70256 h -1.567519 v -11.31714 h 3.100588 q 1.033529,0 1.782838,0.22393 0.757921,0.21532 1.240235,0.62873 0.490926,0.4048 0.72347,0.99046 0.232545,0.57706 0.232545,1.30053 0,0.59428 -0.180868,1.11104 -0.172255,0.51677 -0.508152,0.93018 -0.327284,0.41341 -0.809598,0.71486 -0.482314,0.29283 -1.093819,0.44786 0.146417,0.0947 0.275608,0.21532 0.129191,0.11196 0.24977,0.27561 l 3.040299,4.47862 h -1.395265 q -0.404799,0 -0.62873,-0.31867 l -2.678564,-4.03076 q -0.129191,-0.18948 -0.28422,-0.267 -0.146417,-0.0861 -0.447863,-0.0861 z m 0,-1.14549 h 1.472779 q 0.620118,0 1.085206,-0.15503 0.473701,-0.16364 0.792373,-0.45648 0.318671,-0.29283 0.473701,-0.69763 0.163642,-0.41341 0.163642,-0.90434 0,-2.02399 -2.454632,-2.02399 H 88.15 Z m 14.60721,-5.46909 v 1.27468 h -5.038451 v 3.7121 h 4.056601 v 1.23162 h -4.056601 v 3.82406 h 5.047071 l -0.009,1.27468 h -6.614583 v -11.31714 z"
       id="text1-4"
       aria-label="STORE" />
  </g>
</svg>
