<?xml version="1.0" encoding="UTF-8"?>
<svg xmlns="http://www.w3.org/2000/svg" viewBox="0 0 231.55 231.55">
  <g id="Layer_2" data-name="Layer 2">
    <g>
      <rect x="2.5" y="2.5" width="226.55" height="226.55" style="fill: #c9c7c7;"/>
      <path d="M226.55,5v221.55H5V5h221.55M231.55,0H0v231.55h231.55V0h0Z" style="fill: #707070;"/>
    </g>
  </g>
  <g id="Layer_1" data-name="Layer 1">
    <path d="M44.23,77.16l-18.9,12.5s19.78,22.66,35.33,21.89,31.33-9.22,33.71-13.25,6.03-10.56,3.73-12.29-15.39-6.49-15.39-6.49l-38.47-2.36Z" style="fill: #333;"/>
    <path d="M91.8,59.57c-2.59,13.28-9.34,22.17-12.1,25.5-5.9,7.13-11.23,13.57-18.05,13.15-5.92-.37-10.2-5.73-15.55-12.44-4.4-5.52-6.59-10.59-7.68-13.15-1.02-2.41-2.83-7.1-3.84-13.06-1.46-8.59-4.5-26.46,5.57-33.92,3.23-2.39,9.83-2.82,23.04-3.68,9.83-.64,14.82-.93,18.05.7,9.68,4.87,10.97,18.41,11.45,23.49.56,5.83-.28,10.26-.89,13.4Z" style="fill: #fff;"/>
    <path d="M46.06,39.72l2.11-8.06s.77,6.72,1.92,8.06,2.11.58,2.88-1.54,5.57-.38,5.57-.38l20.35-.38,6.91,2.97s1.92,13.92.77,16.61.37,13.06.37,13.06l2.32,3,2.16-7.87s3.6-2.04,3.22-5.5.19-20.35-.96-22.27-7.68-18.62-10.18-18.82-19.58-3.46-22.85-1.73-15.36,4.02-17.66,4.6-8.06,5.96-8.83,9.03-5.38,15.36-4.8,20.74.72,18.89,4.61,21.81,5.76,4.11,5.76,4.11c0,0-2.11-9.23-1.34-13.64s-.58-13.82.58-18.23,5.38-11.52,5.38-11.52l1.73,5.95Z" style="fill: #333;"/>
    <path d="M44.63,53.54s7.97-3.46,11.33-1.73,2.02,2.21,2.02,2.21c0,0,0-.38-1.63-.67s-5.86-.29-6.91,0-4.8.19-4.8.19Z" style="fill: #333;"/>
    <path d="M49.05,55.12s4.51-1.65,6.24-.9,2.4,2.4,1.44,2.55-4.53.45-5.29,0-2.39-1.65-2.39-1.65Z" style="fill: #333;"/>
    <path d="M57.17,79.75s5.31,3.89,6.32,3.24,4.32-2.81,4.75-3.24-3.89.43-4.9.43-6.17-.43-6.17-.43Z" style="fill: #333;"/>
    <path d="M58.24,65.97s-.12,2.07.89,4.03,1.38,2.3,2.31,2.44,2.31.9,3.49,0,2.06-2.15,2.35-5.66.29-5.79.51-6.81,1.91-6.42,3.3-5.74,1.03,0,2.06-.06,1.76-.38,3.01,0,1.91.08,1.61-.65-1.39-1.17-2.94-1.25-3.89-.15-4.77,0-2.64,3-2.86,4.54-.51,11.14-1.69,12.46-1.83,1.47-2.49.88-1.25.29-2.06-.37-2.06-1.76-2.13-2.64-.37-1.76-.29-2.27-.31,1.1-.31,1.1Z" style="fill: #4c4c4c;"/>
    <path d="M48.15,76.29s25.92-.43,27.94.86-5.18-3.46-6.62-5.18-2.16-2.45-2.3-4.03-.43,3.74-1.73,3.89-3.46.58-4.75-.29-12.53,4.75-12.53,4.75Z" style="fill: #333;"/>
    <path d="M57.17,79.75s3.65.31,4.91.37,6.16-.37,6.16-.37" style="fill: #707070;"/>
    <path d="M70.82,55.66s-.11-.32.65-.5,1.35-.35,2.21-.48,3.34.14,3.66.49.81,1.49.27,1.64-1.35.9-2.58.82-3.07.07-3.39-.18-.05-1.31-.05-1.31l-.75-.48Z" style="fill: #333;"/>
  </g>
  <g id="Layer_3" data-name="Layer 3">
    <path d="M131.03,187.78l-8.09,9.59s32.05,23.81,52.74,16.96,26.14-6.3,28.47-12.65,5.6-12.35,4.67-13.89-17.42-1.03-17.42-1.03l-44.19-.67-16.17,1.7Z" style="fill: #333;"/>
    <path d="M196,135.73c3.81,6.76,3.84,13.17,3.77,21.92-.08,10.24-.12,15.91-3.11,22.61-3.87,8.7-13.26,20.4-25.3,20.55-6.5.08-11.83-3.22-17.31-6.62-3.99-2.48-8.25-5.12-11.54-10.05-.61-.91-1.15-1.85-1.65-3.19-1.11-2.96-2.03-7.88-3.12-18.85-1.45-14.61-2.13-22.01,0-26.38,2.97-6.09,8.64-10.76,14.53-12.63,2.74-.87,2.96-.32,19.08.3,9.26.35,10.64.22,13.31,1.37,6.64,2.84,10.06,8.73,11.32,10.96Z" style="fill: #fff;"/>
    <path d="M140.86,174.21s-1.89-13.7-1.22-17.58,1.22-6.28,1.22-6.28l2.22-1.26.89,1.71v4.8l1-7.19,1.22,6.51.89-6.51v8.11h1v-10.73l1.44,9.02,1,.57v-7.42l-.55-4.34,2.11,3.65v6.28l.67,1.83,1.44.8,1.55-10.39,4.1,9.59s4.77-4.34,8.76-3.65,6.21.11,9.21,1.03,6.88,2.28,8.88,4.8,3.44,3.88,3.44,3.88h1s-2.77,22.84-11.32,28.09c-8.54,5.25-15.81,7.99-17.97,8.68s-1.78,3.31-1.78,3.31l9.54,1.83h16.31l9.54-10.28-2.39-4.97s4.75-5.42,6.73-5.07,2.98-5.25,2.98-8.79-.44-20.44-1.22-22.95-1.66-16.56-3.55-17.81-4.99-7.54-8.21-8.22-10.87-3.2-15.87-2.63-17.42-1.54-21.52-.08-13.2,5.91-14.76,8.65-2.44,23.75-2.22,26.95,3.24,13.58,3.44,14.91,2,1.19,2,1.19Z" style="fill: #333;"/>
    <path d="M153.62,171.21s.61,2.34,2.55,2.11,5.33-.06,5.27-1.6.28,2.28.28,2.28c0,0,.11,1.54-1,1.88s-.89.46-2.33.63-2.83.11-3.22,0-1.22-.69-1.55-1.14-.33-4.17-.33-4.17" style="fill: #424242;"/>
    <path d="M146.59,180.81s4.83-7.45,11.65-6.25,10.15,2.65,10.4,7.02.83,8.39,0,10.19-.42,2.14-1.34-1.71-.99-6.94-2.58-7.88-1-3.17-4.83-2.31-4.83-.51-7.41,1.63-4.83,3.55-4.83,3.55l-1.08-.73v-3.51Z" style="fill: #333;"/>
    <path d="M154.78,182.8s1.94,2.34,3.33,1.83,2.61-1.66,2.61-1.83-.94.46-1.39.63-.72.45-1.49.31-1.17-.88-1.56-.97-1.5.03-1.5.03Z" style="fill: #333;"/>
    <path d="M141.5,160.94s7.54-6.39,11.37-3.14,4.38,5.2,4.22,5.59-2.61-.23-4.44-.97-2.94-.09-5.1.24-3.11.73-3.94.39-2.11-2.11-2.11-2.11Z" style="fill: #424242;"/>
    <path d="M162.91,156.54s1.16,3.6.94,4.91,4.24,1.54,4.24,1.54c0,0,.14-.43,3.3-.33s8.21,1.13,8.21,1.59,0-3.65,0-3.65l-4.66-3.37s-3.66-.57-4.27-.69-7.43,0-7.43,0" style="fill: #424242;"/>
  </g>
  <g id="Layer_4" data-name="Layer 4">
    <path d="M36.48,122.33s.36.03.98.09c2.63.23,10.01.84,14.83.99,5.95.18,19.7.72,22.16-1.07s6.36-.18,7.18,0,6.77,9.3,6.77,9.3l4.72,7.16,2.87,6.8,1.64,7.33-1.44,15.17v11.71s.21,6.4,0,8.01-8.82,12.42-8.82,12.42l-8.41,2.81,16.42,7.84-12.72,1.58s-17.24,3.56-17.85,3.05-13.95-1.77-13.95-1.77l-13.13-3.58s-5.55-4.11-9.04-5.72-2.25-5.19,5.34-6.62,4.31-5.09,4.1-6.12-2.87-4.61-4.92-6.04-4.95-6.32-6.37-9.15-1.22-12.13-1.22-16.25,1.83-6.62,3.07-11.63.42-13.95,3.29-15.74,4.31-11.39,4.31-11.39l.21.84Z" style="fill: #333;"/>
    <path d="M32.57,157.17s-.19,10.27,1.55,14.8,2.52,5.71,6.39,10.92,6.39,7.56,8.52,9.24,7.17,3.86,12.78,4.03,6.97,0,6.97,0c0,0,11.43-14.95,12.78-20.66s3.1-12.15,2.71-13.89-.58-6.61-3.29-10.3-6.2-7.05-9.1-9.74-5.42-6.05-8.52-6.38-5.62-1.01-7.94,1.18-5.23,3.7-9.88,7.22c-4.65,3.53-9.68,8.57-11.23,9.41s-1.74,4.18-1.74,4.18Z" style="fill: #fff;"/>
    <path d="M43.66,158.87s.1-.78.17-.78.58-.44.58-.44l.41-.16s2.66-.63,2.78-.63.44-.16,1.45.11,1.48.34,1.74.47,1.36,0,1.62.47.51,1.74.44,2.01-.19,1.12-.29,1.52-.29.76-.29.76l-1.02.27s-2.25-.63-2.49-.59-3.36-.76-3.44-.79-1.67-2.22-1.67-2.22Z" style="fill: #707070;"/>
    <path d="M37.31,153.28s1.07.63,3.97,1.16,5.03,1.25,7.75.63,3.78-.14,4.55.24,1.45.74,1.45,2.35.19,2.42-1.16,4.2-3.49,3.22-3.49,3.22c0,0,2.32-5.81,1.07-6.71s-2.52-1.07-4.36-.98-4.94.72-6.2.09-3.1-1.16-4.16-2.33,0-2.33,0-2.33l.58.45Z" style="fill: #333;"/>
    <path d="M44.84,158.26s.22.84-3.6.7-4.92-.85-4.98-1.03-.25,1.21,1.15,1.65,1.36.09,2.32.4,1.4-.22,1.89.76.53,1.3,1.16,1.88.69,1.11,1.36.85l.66-.26s-.19-3.55.03-3.9,0-1.06,0-1.06Z" style="fill: #333;"/>
    <path d="M44.14,163.47s1.27.99,1.7.93,1.57,0,2-.06,1.21.06,1.61-.19.81-.33,1.07-.68.54-.58.67-.7.14-.47.14-.47c0,0-.12-.41-.32-.41s-2.55.37-2.74.43-2.57.09-2.68.16-1.44.99-1.44.99Z" style="fill: #707070;"/>
    <ellipse cx="47.4" cy="161.09" rx="4.16" ry="2.85" style="fill: #fff; stroke: #707070; stroke-miterlimit: 10; stroke-width: .1px;"/>
    <path d="M48.84,177.3s13.43,4.35,20.14,1.79c6.71-2.56,4.78-.49,4.78-.49,0,0-5.03,2.1-5.49,2.4s-4.78,1.25-5.55,2.15-1.16,2.09-2.45,1.61-1.16-1.19-2.19-2.15-2.39-1.55-4.78-2.33-4.45-2.98-4.45-2.98Z" style="fill: #333;"/>
    <path d="M58.04,180.25s.84.36,1.48.36,2.13.06,2.55,0,2.32.24,2.74.18.84.29.84.29c0,0-.61.51-1,.42s0-.21-.84-.3-.84-.18-2.19.03-1.87.3-2.78.09-2.29-.78-2.49-1.07,1.68,0,1.68,0Z" style="fill: #707070;"/>
    <path d="M61.62,134.99s-1.71.06-1.71,3.52,1.55,5.72,2.71,6.68-.27,4.05-1.62,4.17" style="fill: none; stroke: #333; stroke-miterlimit: 10;"/>
    <path d="M53.88,172.41s1.36-.09,1.84.54,2.27,1.52,2.73,1.61,1.84.63,2.55,0,2.36-.6,2.65-.93,1.74-3.19,1.45-3.99-1.36-.11-1.45-2.11-.58-3.26,0-4.38,1.04-3.6,1.49-4.19,6.55-2.26,9.55-2.14l3,.12" style="fill: none; stroke: #565656; stroke-miterlimit: 10;"/>
    <path d="M64.41,162.47s7.59-1.83,9.6-1.74,5.07.84,5.21-.36-.15-1.57-.39-2.64-1.15-1.3-1.15-1.3l-12.04,2.22-1.24,3.59" style="fill: #707070;"/>
    <ellipse cx="68.79" cy="162.14" rx="4.16" ry="2.52" style="fill: #fff; stroke: #565656; stroke-miterlimit: 10; stroke-width: .1px;"/>
  </g>
  <g id="Layer_5" data-name="Layer 5">
    <path d="M149.25,71.79s-10.37,3.66-14.86,8.92-7.58,11.14-7.58,12.22,7.27,8.45,7.27,8.45c0,0,9.13,4.1,10.06,4.17s12.38,1.93,13.15,2.08,14.23,2.48,14.23,2.48c0,0,23.53-9.9,26.47-12.69s4.8-3.4,5.26-4.95,1.86-4.18,1.86-4.18c0,0-2.19-4.96-5.42-6.81s-50.45-9.7-50.45-9.7Z" style="fill: #333;"/>
    <path d="M153.77,83.26l-1.29,5.32s2.34,5.17,3,5.67,6.22,3.85,6.96,2.76,3.25-2.68,3.25-2.68v-2.48l.41-2.45-3.44-5.77-8.88-.37Z" style="fill: #fff;"/>
    <path d="M194.51,66.03c-2.15,11.14-10.2,18.2-14.98,22.4-4.5,3.95-8.53,7.48-13.45,6.88-6.92-.85-10.77-9.36-13.48-14.72-1.44-2.86-5.83-11.53-4.33-22,2.1-14.7,15.56-31.35,28.43-29.28,12.91,2.08,20.64,22.07,17.82,36.72Z" style="fill: #fff; stroke: #333; stroke-miterlimit: 10;"/>
    <path d="M143.73,75.51s3.09-4.66,6.5-13.17c3.4-8.51,5.43-12.64,9.06-16.08s6.11-5.85,13.84-4.47c7.74,1.38,12.69,2.06,16.4,7.23s6.72,1.64,3.05,10.11-1.19,16.41-4.29,19.5-.62,14.88.31,14.32,5.65-1.25,5.65-1.25l7.99-19.18s-.91-25.9,0-27.28-7.13-12.04-7.13-12.04c0,0,3.08,2.37-4.04-3.46s-4.95-10.99-14.24-9.96-17.53-1.58-23,3.68-11.66,14.21-12.59,18-3.1,15.74-1.71,17.68,4.18,16.39,4.18,16.39Z" style="fill: #333;"/>
    <path d="M153.09,53.84s10.54,4.4,11.88,0-.06-7.55-2.04-7.55,2.21-1.34,2.57,0,1.04,4.72,1.04,5.11-.22,3.38-1.01,3.85-1.62,1.34-2.6,1.42-7.01-.94-7.35-1.1-2.49-1.73-2.49-1.73Z" style="fill: #333;"/>
    <path d="M180.35,55.73s3.2-1.96,6.71-.26,5.67,3.56,5.73,4.59.57,2.27,0,3.25-1.08,1.44-1.7,1.13.72-2.11-2.01-4.28-3.25-2.99-5.21-2.99-3.82-.52-4.59-.24,1.08-1.21,1.08-1.21Z" style="fill: #4c4c4c;"/>
    <path d="M179.08,42.91c-1.63,1.22-5.96,8.21-6.5,13.77s-2.34,11.59-1.05,14.61,2.6,8.59,2.6,8.59c0,0-.08.15,2.01,2.79s5.65,6.96,5.96,6.96,1.08-3.09,1.08-3.09c0,0-3.17-3.07-3.48-3.27s-2.28-2.45-2.57-3.61-2.3-6.11-2.53-6.81-1.32-6.04-1.32-7.35.77-8.81.77-8.81c0,0,2.09-6.36,2.32-6.74s2.17-4.56,2.17-4.56l2.01-3.4-1.47.94Z" style="fill: #333;"/>
    <path d="M163.41,76.89s5.18-1.6,6.85-.61,3.44,3.94,3.44,3.94c0,0-.85-.77-2.48-1.55s-1.55-1.39-3.25-1.16-4.56-.62-4.56-.62Z" style="fill: #4c4c4c;"/>
    <path d="M155.54,55.59s3.3.31,3.87.31h3.38l1.31.69s-.21.38-.46.38-1.34.06-2.22,0-4.33-.22-4.54-.22-.83-.46-.83-.46l-.52-.7Z" style="fill: #424242;"/>
    <path d="M158.96,56.29s1.39-.61,2.01-.39,1.29-.06.83.39-2.84,0-2.84,0Z" style="fill: #4c4c4c;"/>
    <path d="M164.68,67.71s1.96-2.06,2.94-2.32,3.35,2.58,3.61,3.4.57-1.08.36-1.34-1.13-2.17-2.27-2.58-2.84-.46-3.46,0-1.19,2.84-1.19,2.84Z" style="fill: #4c4c4c;"/>
  </g>
</svg>