<?xml version="1.0" encoding="UTF-8" standalone="no"?>
<!-- Created with Inkscape (http://www.inkscape.org/) -->

<svg
   width="455.08334mm"
   height="52.916668mm"
   viewBox="0 0 455.08334 52.916668"
   version="1.1"
   id="svg1"
   inkscape:version="1.4.2 (ebf0e940d0, 2025-05-08)"
   sodipodi:docname="top_board_sign.svg"
   xmlns:inkscape="http://www.inkscape.org/namespaces/inkscape"
   xmlns:sodipodi="http://sodipodi.sourceforge.net/DTD/sodipodi-0.dtd"
   xmlns="http://www.w3.org/2000/svg"
   xmlns:svg="http://www.w3.org/2000/svg">
  <sodipodi:namedview
     id="namedview1"
     pagecolor="#ffffff"
     bordercolor="#000000"
     borderopacity="0.25"
     inkscape:showpageshadow="2"
     inkscape:pageopacity="0.0"
     inkscape:pagecheckerboard="0"
     inkscape:deskcolor="#d1d1d1"
     inkscape:document-units="mm"
     inkscape:zoom="0.56882515"
     inkscape:cx="862.30365"
     inkscape:cy="412.25322"
     inkscape:window-width="1920"
     inkscape:window-height="1131"
     inkscape:window-x="0"
     inkscape:window-y="0"
     inkscape:window-maximized="1"
     inkscape:current-layer="layer1"
     showguides="false" />
  <defs
     id="defs1" />
  <g
     inkscape:label="Layer 1"
     inkscape:groupmode="layer"
     id="layer1"
     transform="translate(-25.325583,-62.162792)">
    <path
       d="m 66.386141,76.358076 v 3.059242 H 54.789958 v 9.405104 h 9.859856 v 3.059242 H 54.789958 V 103.51919 H 51.007246 V 76.358076 Z m 7.896153,-2.232421 V 103.51919 H 70.644276 V 74.125655 Z m 19.099595,29.393535 q -0.537435,0 -0.826822,-0.16537 -0.289388,-0.16536 -0.392741,-0.68212 l -0.454752,-1.88103 q -0.785481,0.72347 -1.550292,1.30225 -0.74414,0.5581 -1.570962,0.95085 -0.826823,0.39274 -1.777668,0.57877 -0.950846,0.20671 -2.087727,0.20671 -1.178221,0 -2.211749,-0.31006 -1.012858,-0.33073 -1.798339,-0.99219 -0.76481,-0.68213 -1.219563,-1.67431 -0.434081,-1.012861 -0.434081,-2.377118 0,-1.198892 0.640787,-2.294432 0.661458,-1.11621 2.129067,-1.984373 1.46761,-0.868164 3.824054,-1.405598 2.356443,-0.558105 5.787756,-0.640788 V 90.60009 q 0,-2.356444 -1.012858,-3.534666 -0.992186,-1.198892 -2.914548,-1.198892 -1.281575,0 -2.170409,0.330729 -0.868163,0.330729 -1.508951,0.723469 -0.640787,0.392741 -1.11621,0.72347 -0.454752,0.330729 -0.930175,0.330729 -0.37207,0 -0.640787,-0.186035 -0.268717,-0.186035 -0.434082,-0.475423 L 80.049379,86.15592 q 1.674316,-1.612304 3.596677,-2.397785 1.943033,-0.806152 4.299476,-0.806152 1.694986,0 3.017902,0.558105 1.322915,0.537435 2.211749,1.550292 0.888834,1.012857 1.343587,2.418455 0.475422,1.405598 0.475422,3.121255 v 12.9191 z m -7.565424,-2.23242 q 0.909505,0 1.674315,-0.18604 0.764811,-0.18603 1.446939,-0.51676 0.682129,-0.3514 1.281575,-0.847494 0.620116,-0.516764 1.219563,-1.136881 v -4.175452 q -2.418456,0.103352 -4.113441,0.413411 -1.694986,0.289388 -2.769855,0.785481 -1.054198,0.496093 -1.529621,1.178222 -0.475423,0.661458 -0.475423,1.48828 0,0.785481 0.248047,1.364257 0.268717,0.558106 0.702799,0.930176 0.434081,0.3514 1.033527,0.53743 0.599447,0.16537 1.281575,0.16537 z M 113.49434,86.941401 q -0.16536,0.227376 -0.33073,0.351399 -0.14469,0.103353 -0.43408,0.103353 -0.31006,0 -0.64079,-0.248047 -0.33073,-0.248046 -0.82682,-0.537434 -0.49609,-0.310058 -1.21956,-0.558105 -0.7028,-0.248047 -1.73633,-0.248047 -1.36426,0 -2.41845,0.537435 -1.03353,0.516764 -1.73633,1.50895 -0.68213,0.971517 -1.0542,2.377115 -0.3514,1.405597 -0.3514,3.162595 0,1.819009 0.37207,3.245277 0.39274,1.405598 1.09554,2.377114 0.7028,0.971517 1.69499,1.488284 0.99218,0.49609 2.23242,0.49609 1.19889,0 1.9637,-0.31006 0.76481,-0.31006 1.28157,-0.68213 0.51677,-0.372067 0.8475,-0.682125 0.3514,-0.310059 0.72347,-0.310059 0.41341,0 0.66145,0.3514 l 1.0542,1.322914 q -0.66145,0.80615 -1.46761,1.4056 -0.80615,0.57878 -1.73632,0.97152 -0.93018,0.37207 -1.94304,0.5581 -0.99218,0.18604 -2.02571,0.18604 -1.77767,0 -3.32796,-0.7028 -1.55029,-0.7028 -2.70784,-2.02572 -1.13688,-1.343584 -1.798342,-3.265946 -0.640787,-1.943032 -0.640787,-4.423499 0,-2.253091 0.599446,-4.154782 0.599443,-1.922362 1.736323,-3.307289 1.15756,-1.384928 2.83187,-2.149738 1.69499,-0.785482 3.88607,-0.785482 2.06705,0 3.61734,0.702799 1.55029,0.682129 2.74919,1.922362 z m 12.83642,-3.948077 q 2.21175,0 3.98942,0.744141 1.77766,0.723469 3.0179,2.087726 1.24023,1.343586 1.90169,3.265948 0.68213,1.922362 0.68213,4.299476 0,2.397784 -0.68213,4.320146 -0.66146,1.922362 -1.90169,3.286619 -1.24024,1.34359 -3.0179,2.08773 -1.77767,0.72347 -3.98942,0.72347 -2.21175,0 -4.01009,-0.72347 -1.77767,-0.74414 -3.03857,-2.08773 -1.24023,-1.364257 -1.92236,-3.286619 -0.66146,-1.922362 -0.66146,-4.320146 0,-2.377114 0.66146,-4.299476 0.68213,-1.922362 1.92236,-3.265948 1.2609,-1.364257 3.03857,-2.087726 1.79834,-0.744141 4.01009,-0.744141 z m 0,17.983386 q 1.46761,0 2.56315,-0.49609 1.09554,-0.516768 1.81901,-1.488284 0.74414,-0.971516 1.09554,-2.377114 0.37207,-1.405598 0.37207,-3.203937 0,-1.798338 -0.37207,-3.203936 -0.3514,-1.405598 -1.09554,-2.377114 -0.72347,-0.971516 -1.81901,-1.48828 -1.09554,-0.516764 -2.56315,-0.516764 -1.48828,0 -2.60449,0.516764 -1.09554,0.516764 -1.83968,1.48828 -0.72347,0.971516 -1.09554,2.377114 -0.3514,1.405598 -0.3514,3.203936 0,1.798339 0.3514,3.203937 0.37207,1.405598 1.09554,2.377114 0.74414,0.971516 1.83968,1.488284 1.11621,0.49609 2.60449,0.49609 z m 13.84927,2.54248 V 83.303383 h 2.08772 q 0.57878,0 0.80615,0.227376 0.24805,0.227376 0.28939,0.764811 l 0.24805,2.97656 q 0.93017,-2.005044 2.29443,-3.162595 1.36426,-1.157552 3.28662,-1.157552 0.64079,0 1.19889,0.144694 0.55811,0.124024 1.01286,0.434082 l -0.28939,2.687172 q -0.062,0.516764 -0.57877,0.516764 -0.28939,0 -0.82683,-0.103352 -0.51676,-0.124024 -1.15755,-0.124024 -0.93017,0 -1.65364,0.289388 -0.7028,0.268717 -1.28158,0.826822 -0.5581,0.537435 -0.99218,1.322916 -0.43409,0.785481 -0.80616,1.798338 v 12.774407 z m 22.55158,-20.525866 q 1.81901,0 3.3693,0.599447 1.55029,0.599446 2.68717,1.756997 1.13688,1.157551 1.77767,2.831866 0.64079,1.674315 0.64079,3.844724 0,0.847493 -0.18604,1.136881 -0.18603,0.268717 -0.68213,0.268717 h -13.51854 q 0.0413,1.901691 0.51676,3.32796 0.47542,1.405598 1.30225,2.335773 0.84749,0.930171 2.00504,1.405601 1.15755,0.45475 2.58382,0.45475 1.32292,0 2.29443,-0.28939 0.97152,-0.31006 1.65365,-0.682127 0.7028,-0.37207 1.17822,-0.661458 0.47542,-0.310059 0.82682,-0.310059 0.22738,0 0.39274,0.103353 0.16537,0.08268 0.28939,0.248047 l 1.03353,1.322914 q -0.68213,0.80615 -1.61231,1.4056 -0.9095,0.57878 -1.9637,0.97152 -1.0542,0.37207 -2.19108,0.5581 -1.11621,0.18604 -2.21175,0.18604 -2.10839,0 -3.88606,-0.7028 -1.77767,-0.7028 -3.07992,-2.06706 -1.28157,-1.384926 -2.00504,-3.38997 -0.72347,-2.025715 -0.72347,-4.650876 0,-2.108397 0.64079,-3.927406 0.66146,-1.839679 1.88102,-3.183266 1.24023,-1.364256 2.99723,-2.129067 1.77767,-0.764811 3.98942,-0.764811 z m 0.062,2.645832 q -2.54248,0 -4.03076,1.48828 -1.46761,1.48828 -1.83968,4.0721 h 11.01741 q 0,-1.219563 -0.3514,-2.23242 -0.3514,-1.033528 -1.01286,-1.756998 -0.66146,-0.74414 -1.63297,-1.157551 -0.95085,-0.413411 -2.14974,-0.413411 z m 25.8382,1.302245 q -0.16537,0.227376 -0.33073,0.351399 -0.14469,0.103353 -0.43408,0.103353 -0.31006,0 -0.64079,-0.248047 -0.33073,-0.248046 -0.82682,-0.537434 -0.49609,-0.310058 -1.21956,-0.558105 -0.7028,-0.248047 -1.73633,-0.248047 -1.36426,0 -2.41846,0.537435 -1.03352,0.516764 -1.73632,1.50895 -0.68213,0.971517 -1.0542,2.377115 -0.3514,1.405597 -0.3514,3.162595 0,1.819009 0.37207,3.245277 0.39274,1.405598 1.09554,2.377114 0.7028,0.971517 1.69498,1.488284 0.99219,0.49609 2.23242,0.49609 1.1989,0 1.96371,-0.31006 0.76481,-0.31006 1.28157,-0.68213 0.51677,-0.372067 0.8475,-0.682125 0.35139,-0.310059 0.72346,-0.310059 0.41342,0 0.66146,0.3514 l 1.0542,1.322914 q -0.66146,0.80615 -1.46761,1.4056 -0.80615,0.57878 -1.73633,0.97152 -0.93017,0.37207 -1.94303,0.5581 -0.99218,0.18604 -2.02571,0.18604 -1.77767,0 -3.32796,-0.7028 -1.55029,-0.7028 -2.70785,-2.02572 -1.13688,-1.343584 -1.79833,-3.265946 -0.64079,-1.943032 -0.64079,-4.423499 0,-2.253091 0.59945,-4.154782 0.59944,-1.922362 1.73632,-3.307289 1.15755,-1.384928 2.83187,-2.149738 1.69498,-0.785482 3.88606,-0.785482 2.06706,0 3.61735,0.702799 1.55029,0.682129 2.74918,1.922362 z m 12.83641,-3.948077 q 2.21175,0 3.98942,0.744141 1.77767,0.723469 3.0179,2.087726 1.24024,1.343586 1.90169,3.265948 0.68213,1.922362 0.68213,4.299476 0,2.397784 -0.68213,4.320146 -0.66145,1.922362 -1.90169,3.286619 -1.24023,1.34359 -3.0179,2.08773 -1.77767,0.72347 -3.98942,0.72347 -2.21175,0 -4.01008,-0.72347 -1.77767,-0.74414 -3.03858,-2.08773 -1.24023,-1.364257 -1.92236,-3.286619 -0.66146,-1.922362 -0.66146,-4.320146 0,-2.377114 0.66146,-4.299476 0.68213,-1.922362 1.92236,-3.265948 1.26091,-1.364257 3.03858,-2.087726 1.79833,-0.744141 4.01008,-0.744141 z m 0,17.983386 q 1.46761,0 2.56315,-0.49609 1.09554,-0.516768 1.81901,-1.488284 0.74414,-0.971516 1.09554,-2.377114 0.37207,-1.405598 0.37207,-3.203937 0,-1.798338 -0.37207,-3.203936 -0.3514,-1.405598 -1.09554,-2.377114 -0.72347,-0.971516 -1.81901,-1.48828 -1.09554,-0.516764 -2.56315,-0.516764 -1.48828,0 -2.60449,0.516764 -1.09554,0.516764 -1.83968,1.48828 -0.72347,0.971516 -1.09554,2.377114 -0.3514,1.405598 -0.3514,3.203936 0,1.798339 0.3514,3.203937 0.37207,1.405598 1.09554,2.377114 0.74414,0.971516 1.83968,1.488284 1.11621,0.49609 2.60449,0.49609 z m 13.84928,2.54248 V 83.303383 h 2.08772 q 0.57878,0 0.80616,0.227376 0.24804,0.227376 0.28938,0.764811 l 0.24805,2.97656 q 0.93018,-2.005044 2.29443,-3.162595 1.36426,-1.157552 3.28662,-1.157552 0.64079,0 1.19889,0.144694 0.55811,0.124024 1.01286,0.434082 l -0.28939,2.687172 q -0.062,0.516764 -0.57877,0.516764 -0.28939,0 -0.82682,-0.103352 -0.51677,-0.124024 -1.15756,-0.124024 -0.93017,0 -1.65364,0.289388 -0.7028,0.268717 -1.28158,0.826822 -0.5581,0.537435 -0.99218,1.322916 -0.43408,0.785481 -0.80615,1.798338 v 12.774407 z m 28.5667,0 q -0.39274,0 -0.64079,-0.16537 -0.24805,-0.18603 -0.28939,-0.57877 l -0.37207,-2.41846 q -1.28157,1.55029 -2.91454,2.50114 -1.63298,0.95085 -3.78272,0.95085 -1.71565,0 -3.12125,-0.66146 -1.38493,-0.68213 -2.37712,-1.98438 -0.99218,-1.302241 -1.52962,-3.224603 -0.53743,-1.943032 -0.53743,-4.46484 0,-2.23242 0.57877,-4.154782 0.59945,-1.943032 1.71566,-3.34863 1.11621,-1.405598 2.70784,-2.21175 1.61231,-0.806152 3.63802,-0.806152 1.83968,0 3.14193,0.620117 1.30224,0.599446 2.3151,1.736327 V 74.125655 h 3.63802 v 29.393535 z m -6.82129,-2.62516 q 1.71566,0 2.97657,-0.78548 1.28157,-0.806156 2.37711,-2.232424 v -9.777174 q -0.97152,-1.302245 -2.1084,-1.819009 -1.13688,-0.537434 -2.52181,-0.537434 -2.74918,0 -4.23746,2.005044 -1.48828,2.005044 -1.48828,5.725744 0,1.963703 0.33073,3.369301 0.3514,1.405598 0.99219,2.315102 0.64078,0.88883 1.57096,1.32292 0.93017,0.41341 2.10839,0.41341 z M 263.0665,86.652013 q -0.24805,0.454752 -0.74414,0.454752 -0.31006,0 -0.68213,-0.227376 -0.3514,-0.227376 -0.86816,-0.475423 -0.4961,-0.268717 -1.1989,-0.496093 -0.68212,-0.227376 -1.63297,-0.227376 -0.80615,0 -1.44694,0.227376 -0.64079,0.227376 -1.09554,0.620117 -0.45475,0.39274 -0.7028,0.930175 -0.24804,0.516764 -0.24804,1.11621 0,0.785481 0.41341,1.302245 0.41341,0.516764 1.09554,0.888834 0.68212,0.37207 1.55029,0.682128 0.88883,0.289388 1.79834,0.599447 0.9095,0.310058 1.77766,0.723469 0.88884,0.413411 1.57097,1.012857 0.68212,0.599447 1.09554,1.46761 0.41341,0.847493 0.41341,2.067056 0,1.405598 -0.47543,2.60449 -0.47542,1.178219 -1.40559,2.046389 -0.90951,0.86816 -2.27376,1.36425 -1.34359,0.4961 -3.10059,0.4961 -2.00504,0 -3.65869,-0.68213 -1.63297,-0.68213 -2.76985,-1.77767 l 0.84749,-1.36426 q 0.16537,-0.268714 0.39274,-0.413408 0.22738,-0.144694 0.57878,-0.144694 0.37207,0 0.74414,0.289388 0.37207,0.268714 0.88883,0.620114 0.53744,0.33073 1.28158,0.62012 0.74414,0.26872 1.86035,0.26872 0.95084,0 1.63297,-0.26872 0.7028,-0.26872 1.15755,-0.7028 0.45475,-0.454752 0.68213,-1.054198 0.22738,-0.599446 0.22738,-1.260904 0,-0.826822 -0.43409,-1.364257 -0.41341,-0.558105 -1.09554,-0.930175 -0.68212,-0.39274 -1.57096,-0.682128 -0.86816,-0.289388 -1.79834,-0.599446 -0.9095,-0.330729 -1.79833,-0.72347 -0.86817,-0.413411 -1.5503,-1.033528 -0.68212,-0.640787 -1.11621,-1.550292 -0.41341,-0.909504 -0.41341,-2.211749 0,-1.178222 0.45475,-2.23242 0.45476,-1.074869 1.32292,-1.881021 0.86816,-0.806152 2.14974,-1.281575 1.28157,-0.475423 2.93522,-0.475423 1.88102,0 3.41064,0.620117 1.52962,0.620117 2.60449,1.736327 z"
       id="text1"
       style="font-size:42.3333px;line-height:1;font-family:Carlito;-inkscape-font-specification:Carlito;text-align:center;letter-spacing:0px;word-spacing:0px;text-anchor:middle;fill:#005c7d;stroke-width:0.47679;stroke-linecap:round;stroke-linejoin:round;paint-order:stroke markers fill"
       aria-label="Flacorecords" />
    <g
       id="text2"
       style="font-size:19.7556px;line-height:1;font-family:Carlito;-inkscape-font-specification:Carlito;text-align:center;letter-spacing:0px;word-spacing:0px;text-anchor:middle;fill:#005c7d;stroke-width:0.47679;stroke-linecap:round;stroke-linejoin:round;paint-order:stroke markers fill"
       aria-label="in- en verkoop van &#10;platen en CD's">
      <path
         style="text-align:start;text-anchor:start"
         d="m 290.48239,84.366524 z m 2.05466,-9.434071 v 9.434071 h -1.69775 v -9.434071 z m 0.32797,-2.951764 q 0,0.241157 -0.0965,0.463021 -0.0965,0.212219 -0.2701,0.376206 -0.16399,0.15434 -0.38585,0.250803 -0.21222,0.09646 -0.45338,0.09646 -0.24115,0 -0.45337,-0.09646 -0.21222,-0.09646 -0.37621,-0.250803 -0.15434,-0.163987 -0.2508,-0.376206 -0.0965,-0.221864 -0.0965,-0.463021 0,-0.250804 0.0965,-0.463022 0.0965,-0.221865 0.2508,-0.385852 0.16399,-0.163987 0.37621,-0.26045 0.21222,-0.09646 0.45337,-0.09646 0.24116,0 0.45338,0.09646 0.22186,0.09646 0.38585,0.26045 0.17363,0.163987 0.2701,0.385852 0.0965,0.212218 0.0965,0.463022 z m 2.44051,12.385835 v -9.434071 h 1.01286 q 0.18328,0 0.29904,0.08682 0.11575,0.07717 0.13504,0.260449 l 0.1447,1.003215 q 0.60772,-0.675241 1.36013,-1.080385 0.75241,-0.41479 1.73633,-0.41479 0.7717,0 1.35048,0.26045 0.58842,0.250803 0.98392,0.723471 0.3955,0.463022 0.59807,1.128616 0.20257,0.655948 0.20257,1.45659 v 6.009638 h -1.69775 v -6.009638 q 0,-1.051446 -0.48231,-1.639869 -0.47267,-0.588424 -1.44694,-0.588424 -0.72347,0 -1.35048,0.347266 -0.62701,0.33762 -1.14791,0.945337 v 6.945328 z m 9.7524,-6.299027 h 4.61093 v 1.437297 h -4.61093 z m 14.95175,-3.279738 q 0.84887,0 1.57234,0.279742 0.72347,0.279742 1.25402,0.819935 0.53055,0.540192 0.82958,1.321541 0.29904,0.78135 0.29904,1.79421 0,0.395498 -0.0868,0.530546 -0.0868,0.125402 -0.31833,0.125402 h -6.30867 q 0.0193,0.887458 0.24116,1.553052 0.22186,0.655948 0.60771,1.090031 0.3955,0.434083 0.93569,0.655948 0.54019,0.212218 1.20579,0.212218 0.61736,0 1.07074,-0.135048 0.45337,-0.144694 0.7717,-0.318328 0.32797,-0.173633 0.54984,-0.308681 0.22186,-0.144694 0.38585,-0.144694 0.10611,0 0.18328,0.04823 0.0772,0.03858 0.13505,0.115756 l 0.48231,0.617362 q -0.31833,0.376205 -0.75241,0.655948 -0.42444,0.270096 -0.9164,0.453375 -0.49196,0.173634 -1.0225,0.26045 -0.5209,0.08682 -1.03216,0.08682 -0.98392,0 -1.8135,-0.327974 -0.82958,-0.327974 -1.43729,-0.964629 -0.59807,-0.646301 -0.9357,-1.581991 -0.33762,-0.945337 -0.33762,-2.170415 0,-0.983922 0.29904,-1.832795 0.30868,-0.85852 0.87781,-1.485529 0.57878,-0.636655 1.39871,-0.993568 0.82958,-0.356912 1.86174,-0.356912 z m 0.0289,1.234725 q -1.1865,0 -1.88103,0.694533 -0.68489,0.694532 -0.85852,1.900318 h 5.14147 q 0,-0.569131 -0.16398,-1.041799 -0.16399,-0.482314 -0.47267,-0.819934 -0.30868,-0.347267 -0.76206,-0.540193 -0.44373,-0.192925 -1.00321,-0.192925 z m 5.99034,8.34404 v -9.434071 h 1.01286 q 0.18328,0 0.29904,0.08682 0.11575,0.07717 0.13505,0.260449 l 0.14469,1.003215 q 0.60772,-0.675241 1.36013,-1.080385 0.75241,-0.41479 1.73633,-0.41479 0.7717,0 1.35048,0.26045 0.58842,0.250803 0.98392,0.723471 0.3955,0.463022 0.59807,1.128616 0.20257,0.655948 0.20257,1.45659 v 6.009638 h -1.69774 v -6.009638 q 0,-1.051446 -0.48232,-1.639869 -0.47267,-0.588424 -1.44694,-0.588424 -0.72347,0 -1.35048,0.347266 -0.62701,0.33762 -1.14791,0.945337 v 6.945328 z m 18.72345,0 h -1.53376 l -3.51125,-9.434071 h 1.39871 q 0.19293,0 0.32798,0.106109 0.13504,0.106109 0.18328,0.241157 l 2.01607,6.038577 q 0.1254,0.337621 0.21222,0.655948 0.0868,0.318328 0.16398,0.646301 0.0675,-0.318327 0.15435,-0.636655 0.0965,-0.327973 0.23151,-0.665594 l 2.04501,-6.038577 q 0.0579,-0.144694 0.18328,-0.241157 0.13505,-0.106109 0.29903,-0.106109 h 1.34084 z m 8.66237,-9.578765 q 0.84887,0 1.57234,0.279742 0.72347,0.279742 1.25402,0.819935 0.53055,0.540192 0.82958,1.321541 0.29904,0.78135 0.29904,1.79421 0,0.395498 -0.0868,0.530546 -0.0868,0.125402 -0.31833,0.125402 h -6.30867 q 0.0193,0.887458 0.24116,1.553052 0.22186,0.655948 0.60771,1.090031 0.3955,0.434083 0.93569,0.655948 0.54019,0.212218 1.20579,0.212218 0.61736,0 1.07074,-0.135048 0.45337,-0.144694 0.7717,-0.318328 0.32797,-0.173633 0.54984,-0.308681 0.22186,-0.144694 0.38585,-0.144694 0.10611,0 0.18328,0.04823 0.0772,0.03858 0.13505,0.115756 l 0.48231,0.617362 q -0.31833,0.376205 -0.75241,0.655948 -0.42444,0.270096 -0.9164,0.453375 -0.49196,0.173634 -1.0225,0.26045 -0.5209,0.08682 -1.03216,0.08682 -0.98392,0 -1.8135,-0.327974 -0.82958,-0.327974 -1.4373,-0.964629 -0.59807,-0.646301 -0.93569,-1.581991 -0.33762,-0.945337 -0.33762,-2.170415 0,-0.983922 0.29904,-1.832795 0.30868,-0.85852 0.87781,-1.485529 0.57878,-0.636655 1.39871,-0.993568 0.82958,-0.356912 1.86174,-0.356912 z m 0.0289,1.234725 q -1.1865,0 -1.88103,0.694533 -0.68489,0.694532 -0.85852,1.900318 h 5.14147 q 0,-0.569131 -0.16398,-1.041799 -0.16399,-0.482314 -0.47267,-0.819934 -0.30868,-0.347267 -0.76206,-0.540193 -0.44373,-0.192925 -1.00321,-0.192925 z m 5.90352,8.34404 v -9.434071 h 0.97428 q 0.2701,0 0.3762,0.106109 0.11576,0.106109 0.13505,0.356913 l 0.11576,1.389066 q 0.43408,-0.93569 1.07074,-1.475883 0.63665,-0.540192 1.53376,-0.540192 0.29903,0 0.55948,0.06752 0.26045,0.05788 0.47267,0.202572 l -0.13505,1.254018 q -0.0289,0.241157 -0.2701,0.241157 -0.13504,0 -0.38585,-0.04823 -0.24115,-0.05788 -0.54019,-0.05788 -0.43408,0 -0.7717,0.135048 -0.32798,0.125402 -0.59807,0.385851 -0.26045,0.250804 -0.46302,0.617363 -0.20258,0.366559 -0.37621,0.839227 v 5.961407 z m 8.55626,-13.717023 v 8.064297 h 0.38585 q 0.18328,0 0.28939,-0.04823 0.11576,-0.04823 0.24116,-0.212218 l 2.50804,-3.192922 q 0.13504,-0.154341 0.27974,-0.241157 0.14469,-0.08682 0.36656,-0.08682 h 1.5434 l -2.96141,3.713821 q -0.13505,0.144695 -0.27009,0.270096 -0.13505,0.115756 -0.28939,0.212219 0.16398,0.106109 0.28939,0.26045 0.13504,0.144694 0.27009,0.308681 l 3.15434,4.668804 h -1.52411 q -0.20258,0 -0.35692,-0.06752 -0.15434,-0.07717 -0.27974,-0.250804 l -2.57556,-3.868162 q -0.13505,-0.192925 -0.26045,-0.250803 -0.11575,-0.06752 -0.3762,-0.06752 h -0.43409 v 4.504817 h -1.69774 V 70.649501 Z m 10.60128,4.138258 q 1.03215,0 1.86173,0.347266 0.82958,0.33762 1.40836,0.974275 0.57877,0.627009 0.88746,1.524114 0.31832,0.897105 0.31832,2.006428 0,1.11897 -0.31832,2.016075 -0.30869,0.897104 -0.88746,1.533759 -0.57878,0.627009 -1.40836,0.974276 -0.82958,0.33762 -1.86173,0.33762 -1.03216,0 -1.87138,-0.33762 -0.82959,-0.347267 -1.41801,-0.974276 -0.57878,-0.636655 -0.8971,-1.533759 -0.30869,-0.897105 -0.30869,-2.016075 0,-1.109323 0.30869,-2.006428 0.31832,-0.897105 0.8971,-1.524114 0.58842,-0.636655 1.41801,-0.974275 0.83922,-0.347266 1.87138,-0.347266 z m 0,8.392271 q 0.68488,0 1.19614,-0.231511 0.51125,-0.241157 0.84887,-0.694533 0.34726,-0.453375 0.51125,-1.109323 0.17363,-0.655947 0.17363,-1.495175 0,-0.839227 -0.17363,-1.495174 -0.16399,-0.655948 -0.51125,-1.109324 -0.33762,-0.453375 -0.84887,-0.694532 -0.51126,-0.241158 -1.19614,-0.241158 -0.69454,0 -1.21544,0.241158 -0.51125,0.241157 -0.85852,0.694532 -0.33762,0.453376 -0.51125,1.109324 -0.16399,0.655947 -0.16399,1.495174 0,0.839228 0.16399,1.495175 0.17363,0.655948 0.51125,1.109323 0.34727,0.453376 0.85852,0.694533 0.5209,0.231511 1.21544,0.231511 z m 10.41799,-8.392271 q 1.03215,0 1.86173,0.347266 0.82958,0.33762 1.40836,0.974275 0.57878,0.627009 0.88746,1.524114 0.31832,0.897105 0.31832,2.006428 0,1.11897 -0.31832,2.016075 -0.30868,0.897104 -0.88746,1.533759 -0.57878,0.627009 -1.40836,0.974276 -0.82958,0.33762 -1.86173,0.33762 -1.03216,0 -1.87138,-0.33762 -0.82958,-0.347267 -1.41801,-0.974276 -0.57878,-0.636655 -0.8971,-1.533759 -0.30868,-0.897105 -0.30868,-2.016075 0,-1.109323 0.30868,-2.006428 0.31832,-0.897105 0.8971,-1.524114 0.58843,-0.636655 1.41801,-0.974275 0.83922,-0.347266 1.87138,-0.347266 z m 0,8.392271 q 0.68488,0 1.19614,-0.231511 0.51125,-0.241157 0.84887,-0.694533 0.34727,-0.453375 0.51125,-1.109323 0.17364,-0.655947 0.17364,-1.495175 0,-0.839227 -0.17364,-1.495174 -0.16398,-0.655948 -0.51125,-1.109324 -0.33762,-0.453375 -0.84887,-0.694532 -0.51126,-0.241158 -1.19614,-0.241158 -0.69454,0 -1.21544,0.241158 -0.51125,0.241157 -0.85852,0.694532 -0.33762,0.453376 -0.51125,1.109324 -0.16399,0.655947 -0.16399,1.495174 0,0.839228 0.16399,1.495175 0.17363,0.655948 0.51125,1.109323 0.34727,0.453376 0.85852,0.694533 0.5209,0.231511 1.21544,0.231511 z m 6.55947,4.369769 V 74.932453 h 1.01286 q 0.18328,0 0.29904,0.08682 0.11575,0.07717 0.13505,0.260449 l 0.16398,1.099677 q 0.59807,-0.723471 1.36978,-1.167201 0.7717,-0.443729 1.77491,-0.443729 0.81029,0 1.46624,0.318328 0.65595,0.308681 1.11897,0.916397 0.46302,0.607716 0.71382,1.504821 0.25081,0.897105 0.25081,2.073952 0,1.0418 -0.27974,1.948551 -0.27975,0.897105 -0.81029,1.562699 -0.5209,0.655947 -1.27331,1.032153 -0.75241,0.376205 -1.69775,0.376205 -0.85852,0 -1.46624,-0.289389 -0.60771,-0.289389 -1.08038,-0.810288 v 4.147904 z m 4.19614,-11.421206 q -0.791,0 -1.39871,0.366559 -0.59807,0.366559 -1.09968,1.041799 V 82.09 q 0.44373,0.607716 0.97427,0.858519 0.5402,0.241157 1.19614,0.241157 1.29261,0 1.98714,-0.93569 0.70418,-0.93569 0.70418,-2.672022 0,-0.916397 -0.16399,-1.572345 -0.15434,-0.655947 -0.46302,-1.070738 -0.29903,-0.424437 -0.74276,-0.617362 -0.43409,-0.192926 -0.99357,-0.192926 z m 14.51767,8.237931 h -1.53376 l -3.51125,-9.434071 h 1.39871 q 0.19293,0 0.32797,0.106109 0.13505,0.106109 0.18328,0.241157 l 2.01608,6.038577 q 0.1254,0.337621 0.21222,0.655948 0.0868,0.318328 0.16398,0.646301 0.0675,-0.318327 0.15434,-0.636655 0.0965,-0.327973 0.23151,-0.665594 l 2.04502,-6.038577 q 0.0579,-0.144694 0.18328,-0.241157 0.13504,-0.106109 0.29903,-0.106109 h 1.34084 z m 10.9003,0 q -0.25081,0 -0.38585,-0.07717 -0.13505,-0.07717 -0.18328,-0.318327 L 424.315,83.093214 q -0.36656,0.33762 -0.72347,0.607716 -0.34727,0.26045 -0.73312,0.443729 -0.38585,0.18328 -0.82958,0.270096 -0.44373,0.09646 -0.97428,0.09646 -0.54984,0 -1.03215,-0.144694 -0.47267,-0.154341 -0.83923,-0.463022 -0.35691,-0.318328 -0.56913,-0.78135 -0.20257,-0.472668 -0.20257,-1.109323 0,-0.559485 0.29903,-1.070738 0.30869,-0.520899 0.99357,-0.926044 0.68489,-0.405144 1.78457,-0.655947 1.09967,-0.26045 2.70096,-0.299035 v -0.723472 q 0,-1.099677 -0.47267,-1.649515 -0.46302,-0.559485 -1.36013,-0.559485 -0.59807,0 -1.01286,0.154341 -0.40514,0.15434 -0.70418,0.33762 -0.29903,0.183279 -0.5209,0.33762 -0.21222,0.15434 -0.43408,0.15434 -0.17363,0 -0.29904,-0.08682 -0.1254,-0.08682 -0.20257,-0.221865 l -0.30868,-0.540192 q 0.78135,-0.752411 1.67846,-1.11897 0.90675,-0.376205 2.00642,-0.376205 0.791,0 1.40836,0.26045 0.61736,0.250803 1.03215,0.723472 0.4148,0.472668 0.62701,1.128615 0.22187,0.655948 0.22187,1.45659 v 6.028931 z m -3.53054,-1.041799 q 0.42443,0 0.78135,-0.08682 0.35691,-0.08682 0.67524,-0.241157 0.31832,-0.163987 0.59807,-0.395498 0.28938,-0.241157 0.56913,-0.530546 v -1.94855 q -1.12862,0.04823 -1.91962,0.192925 -0.79099,0.135048 -1.2926,0.366559 -0.49196,0.231511 -0.71382,0.549839 -0.22187,0.308681 -0.22187,0.694533 0,0.366559 0.11576,0.636655 0.1254,0.260449 0.32797,0.434083 0.20257,0.163987 0.48232,0.250803 0.27974,0.07717 0.59807,0.07717 z m 6.84886,1.041799 v -9.434071 h 1.01286 q 0.18328,0 0.29904,0.08682 0.11575,0.07717 0.13505,0.260449 l 0.14469,1.003215 q 0.60772,-0.675241 1.36013,-1.080385 0.75241,-0.41479 1.73633,-0.41479 0.7717,0 1.35048,0.26045 0.58842,0.250803 0.98392,0.723471 0.3955,0.463022 0.59807,1.128616 0.20257,0.655948 0.20257,1.45659 v 6.009638 h -1.69774 v -6.009638 q 0,-1.051446 -0.48232,-1.639869 -0.47266,-0.588424 -1.44694,-0.588424 -0.72347,0 -1.35048,0.347266 -0.62701,0.33762 -1.14791,0.945337 v 6.945328 z"
         id="path3" />
      <path
         style="text-align:start;text-anchor:start"
         d="M 290.78142,107.3054 V 94.688053 h 1.01286 q 0.18328,0 0.29904,0.08682 0.11575,0.07717 0.13505,0.260449 l 0.16398,1.099677 q 0.59807,-0.723471 1.36978,-1.167201 0.7717,-0.443729 1.77491,-0.443729 0.81029,0 1.46624,0.318328 0.65595,0.308681 1.11897,0.916397 0.46302,0.607716 0.71382,1.504821 0.25081,0.897105 0.25081,2.073952 0,1.041796 -0.27975,1.948546 -0.27974,0.89711 -0.81028,1.5627 -0.5209,0.65595 -1.27331,1.03216 -0.75241,0.3762 -1.69775,0.3762 -0.85852,0 -1.46624,-0.28939 -0.60771,-0.28939 -1.08038,-0.81029 v 4.14791 z m 4.19614,-11.421207 q -0.791,0 -1.39871,0.366559 -0.59807,0.366559 -1.09968,1.041799 v 4.553049 q 0.44373,0.60772 0.97427,0.85852 0.5402,0.24116 1.19614,0.24116 1.29261,0 1.98714,-0.93569 0.70418,-0.93569 0.70418,-2.672026 0,-0.916397 -0.16399,-1.572345 -0.15434,-0.655947 -0.46302,-1.070738 -0.29904,-0.424437 -0.74276,-0.617362 -0.43409,-0.192926 -0.99357,-0.192926 z m 7.93889,-5.479092 v 13.717019 h -1.69774 V 90.405101 Z m 8.91317,13.717019 q -0.2508,0 -0.38585,-0.0772 -0.13505,-0.0772 -0.18328,-0.31832 l -0.21222,-0.87782 q -0.36655,0.33762 -0.72347,0.60772 -0.34726,0.26045 -0.73312,0.44373 -0.38585,0.18328 -0.82958,0.2701 -0.44373,0.0965 -0.97427,0.0965 -0.54984,0 -1.03215,-0.1447 -0.47267,-0.15434 -0.83923,-0.46302 -0.35691,-0.31833 -0.56913,-0.78135 -0.20257,-0.47267 -0.20257,-1.10932 0,-0.55949 0.29903,-1.07074 0.30868,-0.5209 0.99357,-0.926043 0.68488,-0.405144 1.78456,-0.655947 1.09968,-0.26045 2.70096,-0.299035 v -0.723472 q 0,-1.099677 -0.47267,-1.649515 -0.46302,-0.559485 -1.36012,-0.559485 -0.59807,0 -1.01286,0.15434 -0.40515,0.154341 -0.70418,0.337621 -0.29904,0.183279 -0.5209,0.33762 -0.21222,0.15434 -0.43408,0.15434 -0.17364,0 -0.29904,-0.08682 -0.1254,-0.08682 -0.20257,-0.221865 l -0.30868,-0.540192 q 0.78135,-0.752411 1.67845,-1.11897 0.90675,-0.376205 2.00643,-0.376205 0.791,0 1.40836,0.26045 0.61736,0.250803 1.03215,0.723472 0.41479,0.472668 0.62701,1.128615 0.22186,0.655948 0.22186,1.45659 v 6.028927 z m -3.53054,-1.0418 q 0.42444,0 0.78135,-0.0868 0.35691,-0.0868 0.67524,-0.24116 0.31833,-0.16399 0.59807,-0.3955 0.28939,-0.24115 0.56913,-0.53054 v -1.948553 q -1.12861,0.04823 -1.91961,0.192923 -0.79099,0.13505 -1.2926,0.36656 -0.49196,0.23151 -0.71383,0.54984 -0.22186,0.30868 -0.22186,0.69453 0,0.36656 0.11575,0.63666 0.12541,0.26045 0.32798,0.43408 0.20257,0.16399 0.48231,0.2508 0.27974,0.0772 0.59807,0.0772 z m 9.33761,1.1865 q -1.09003,0 -1.67845,-0.62701 -0.58843,-0.62701 -0.58843,-1.79421 v -5.749189 h -1.08038 q -0.1447,0 -0.25081,-0.09646 -0.0965,-0.09646 -0.0965,-0.279742 v -0.67524 l 1.48553,-0.192926 0.3955,-2.903533 q 0.0193,-0.144694 0.11575,-0.231511 0.10611,-0.08682 0.26045,-0.08682 h 0.86817 v 3.231507 h 2.59485 v 1.234725 h -2.59485 v 5.633429 q 0,0.57878 0.26045,0.86817 0.27009,0.28939 0.69453,0.28939 0.2508,0 0.42444,-0.0675 0.18328,-0.0675 0.30868,-0.15434 0.1254,-0.0868 0.21222,-0.15434 0.0965,-0.0675 0.17363,-0.0675 0.0868,0 0.13505,0.0386 0.0579,0.0386 0.10611,0.12541 l 0.50161,0.81028 q -0.43409,0.40515 -1.02251,0.62701 -0.58843,0.22187 -1.22508,0.22187 z m 7.5434,-9.723461 q 0.84887,0 1.57234,0.279742 0.72347,0.279742 1.25402,0.819935 0.53055,0.540192 0.82958,1.321541 0.29904,0.78135 0.29904,1.79421 0,0.395498 -0.0868,0.530546 -0.0868,0.125402 -0.31833,0.125402 h -6.30867 q 0.0193,0.887455 0.24116,1.553055 0.22186,0.65594 0.60771,1.09003 0.3955,0.43408 0.93569,0.65595 0.54019,0.21221 1.20579,0.21221 0.61736,0 1.07074,-0.13504 0.45337,-0.1447 0.7717,-0.31833 0.32797,-0.17363 0.54984,-0.30868 0.22186,-0.1447 0.38585,-0.1447 0.10611,0 0.18328,0.0482 0.0772,0.0386 0.13505,0.11576 l 0.48231,0.61736 q -0.31833,0.37621 -0.75241,0.65595 -0.42444,0.2701 -0.9164,0.45338 -0.49196,0.17363 -1.0225,0.26045 -0.5209,0.0868 -1.03216,0.0868 -0.98392,0 -1.8135,-0.32797 -0.82958,-0.32798 -1.43729,-0.96463 -0.59807,-0.6463 -0.93569,-1.58199 -0.33762,-0.94534 -0.33762,-2.170417 0,-0.983922 0.29903,-1.832795 0.30868,-0.85852 0.87781,-1.485529 0.57878,-0.636655 1.39871,-0.993568 0.82959,-0.356912 1.86174,-0.356912 z m 0.0289,1.234725 q -1.1865,0 -1.88103,0.694533 -0.68489,0.694532 -0.85852,1.900318 h 5.14147 q 0,-0.569131 -0.16398,-1.041799 -0.16399,-0.482314 -0.47267,-0.819934 -0.30868,-0.347267 -0.76206,-0.540193 -0.44373,-0.192925 -1.00321,-0.192925 z m 5.99034,8.344036 v -9.434067 h 1.01286 q 0.18328,0 0.29904,0.08682 0.11575,0.07717 0.13505,0.260449 l 0.14469,1.003214 q 0.60772,-0.67524 1.36013,-1.080384 0.75241,-0.41479 1.73633,-0.41479 0.7717,0 1.35048,0.260449 0.58842,0.250804 0.98392,0.723472 0.3955,0.463022 0.59807,1.128616 0.20257,0.655948 0.20257,1.45659 v 6.009634 h -1.69774 v -6.009634 q 0,-1.051446 -0.48232,-1.639869 -0.47267,-0.588424 -1.44694,-0.588424 -0.72347,0 -1.35048,0.347266 -0.62701,0.33762 -1.14791,0.945337 v 6.945324 z m 18.65593,-9.578761 q 0.84887,0 1.57234,0.279742 0.72347,0.279742 1.25402,0.819935 0.53054,0.540192 0.82958,1.321541 0.29903,0.78135 0.29903,1.79421 0,0.395498 -0.0868,0.530546 -0.0868,0.125402 -0.31833,0.125402 h -6.30867 q 0.0193,0.887455 0.24115,1.553055 0.22187,0.65594 0.60772,1.09003 0.3955,0.43408 0.93569,0.65595 0.54019,0.21221 1.20579,0.21221 0.61736,0 1.07073,-0.13504 0.45338,-0.1447 0.77171,-0.31833 0.32797,-0.17363 0.54984,-0.30868 0.22186,-0.1447 0.38585,-0.1447 0.10611,0 0.18328,0.0482 0.0772,0.0386 0.13504,0.11576 l 0.48232,0.61736 q -0.31833,0.37621 -0.75241,0.65595 -0.42444,0.2701 -0.9164,0.45338 -0.49196,0.17363 -1.02251,0.26045 -0.52089,0.0868 -1.03215,0.0868 -0.98392,0 -1.8135,-0.32797 -0.82958,-0.32798 -1.4373,-0.96463 -0.59807,-0.6463 -0.93569,-1.58199 -0.33762,-0.94534 -0.33762,-2.170417 0,-0.983922 0.29904,-1.832795 0.30868,-0.85852 0.87781,-1.485529 0.57878,-0.636655 1.39871,-0.993568 0.82958,-0.356912 1.86174,-0.356912 z m 0.0289,1.234725 q -1.18649,0 -1.88102,0.694533 -0.68489,0.694532 -0.85852,1.900318 h 5.14147 q 0,-0.569131 -0.16399,-1.041799 -0.16398,-0.482314 -0.47267,-0.819934 -0.30868,-0.347267 -0.76205,-0.540193 -0.44373,-0.192925 -1.00322,-0.192925 z m 5.99035,8.344036 v -9.434067 h 1.01286 q 0.18328,0 0.29904,0.08682 0.11575,0.07717 0.13505,0.260449 l 0.14469,1.003214 q 0.60772,-0.67524 1.36013,-1.080384 0.75241,-0.41479 1.73633,-0.41479 0.7717,0 1.35048,0.260449 0.58842,0.250804 0.98392,0.723472 0.3955,0.463022 0.59807,1.128616 0.20257,0.655948 0.20257,1.45659 v 6.009634 h -1.69774 v -6.009634 q 0,-1.051446 -0.48232,-1.639869 -0.47267,-0.588424 -1.44694,-0.588424 -0.72347,0 -1.35048,0.347266 -0.62701,0.33762 -1.14791,0.945337 v 6.945324 z m 22.69772,-2.64308 q 0.13504,0 0.2508,0.11576 l 0.69453,0.75241 q -0.68488,0.90675 -1.6881,1.40835 -1.00321,0.50161 -2.40192,0.50161 -1.23473,0 -2.23794,-0.47267 -0.99357,-0.47266 -1.7074,-1.32154 -0.70418,-0.85852 -1.09003,-2.04501 -0.3762,-1.196141 -0.3762,-2.633438 0,-1.437297 0.40514,-2.623791 0.40515,-1.19614 1.13826,-2.054659 0.73312,-0.85852 1.75563,-1.331188 1.0225,-0.472668 2.25723,-0.472668 1.22508,0 2.15112,0.434083 0.93569,0.434083 1.63022,1.176847 l -0.57877,0.810288 q -0.0579,0.08682 -0.1447,0.144694 -0.0868,0.05788 -0.22186,0.05788 -0.16399,0 -0.36656,-0.173633 -0.19293,-0.173633 -0.51125,-0.376205 -0.31833,-0.212219 -0.791,-0.385852 -0.47267,-0.173633 -1.17685,-0.173633 -0.82958,0 -1.52411,0.33762 -0.68489,0.33762 -1.18649,0.983922 -0.49196,0.636655 -0.77171,1.562698 -0.27009,0.916398 -0.27009,2.083599 0,1.176847 0.28939,2.102891 0.28938,0.926047 0.79099,1.562697 0.50161,0.63666 1.17685,0.97428 0.68489,0.33762 1.46623,0.33762 0.48232,0 0.85852,-0.0675 0.38586,-0.0675 0.70418,-0.20257 0.32798,-0.14469 0.60772,-0.35691 0.28939,-0.22187 0.56913,-0.5209 0.15434,-0.13505 0.29904,-0.13505 z m 12.82956,-3.694528 q 0,1.427651 -0.42443,2.594848 -0.41479,1.1672 -1.17685,2.00643 -0.75241,0.82958 -1.82315,1.28296 -1.06109,0.45337 -2.35369,0.45337 h -4.37942 V 91.4469 h 4.37942 q 1.2926,0 2.35369,0.463022 1.07074,0.453375 1.82315,1.282956 0.76206,0.829581 1.17685,2.006428 0.42443,1.167201 0.42443,2.585206 z m -1.80385,0 q 0,-1.157555 -0.27974,-2.064306 -0.27975,-0.916398 -0.80065,-1.553053 -0.5209,-0.636655 -1.25401,-0.964628 -0.73312,-0.337621 -1.63987,-0.337621 h -2.61415 v 9.839216 h 2.61415 q 0.90675,0 1.63987,-0.32797 0.73311,-0.33762 1.25401,-0.96463 0.5209,-0.63666 0.80065,-1.553056 0.27974,-0.916398 0.27974,-2.073952 z m 5.37298,-7.003206 v 2.700961 l -0.16399,1.437297 q -0.0289,0.299035 -0.15434,0.472668 -0.1254,0.163987 -0.42444,0.163987 -0.2508,0 -0.39549,-0.163987 -0.13505,-0.163987 -0.16399,-0.472668 l -0.16399,-1.437297 v -2.700961 z m 7.99677,5.469446 q -0.11575,0.212218 -0.34727,0.212218 -0.14469,0 -0.31832,-0.106109 -0.16399,-0.106109 -0.40515,-0.221865 -0.23151,-0.125401 -0.55948,-0.231511 -0.31833,-0.106109 -0.76206,-0.106109 -0.3762,0 -0.67524,0.106109 -0.29903,0.10611 -0.51125,0.289389 -0.21222,0.18328 -0.32798,0.434083 -0.11575,0.241157 -0.11575,0.5209 0,0.366559 0.19292,0.607716 0.19293,0.241157 0.51126,0.41479 0.31832,0.173634 0.72347,0.318328 0.41479,0.135048 0.83923,0.279742 0.42443,0.144695 0.82958,0.33762 0.41479,0.192926 0.73312,0.472669 0.31832,0.279742 0.51125,0.684888 0.19292,0.3955 0.19292,0.96463 0,0.65594 -0.22186,1.21543 -0.22187,0.54984 -0.65595,0.95498 -0.42443,0.40515 -1.06109,0.63666 -0.62701,0.23151 -1.44694,0.23151 -0.93569,0 -1.7074,-0.31833 -0.76205,-0.31833 -1.2926,-0.82958 l 0.3955,-0.63666 q 0.0772,-0.1254 0.18328,-0.19292 0.10611,-0.0675 0.27009,-0.0675 0.17364,0 0.34727,0.13505 0.17363,0.1254 0.41479,0.28939 0.2508,0.15434 0.59807,0.28939 0.34727,0.1254 0.86817,0.1254 0.44373,0 0.76205,-0.1254 0.32798,-0.1254 0.5402,-0.32797 0.21221,-0.21222 0.31832,-0.49196 0.10611,-0.27975 0.10611,-0.58843 0,-0.38585 -0.20257,-0.63665 -0.19293,-0.26045 -0.51125,-0.43409 -0.31833,-0.18328 -0.73312,-0.31832 -0.40514,-0.13505 -0.83923,-0.279746 -0.42443,-0.154341 -0.83922,-0.33762 -0.40515,-0.192926 -0.72348,-0.482315 -0.31832,-0.299035 -0.5209,-0.723471 -0.19292,-0.424437 -0.19292,-1.032153 0,-0.549839 0.21222,-1.041799 0.21221,-0.501607 0.61736,-0.877813 0.40514,-0.376205 1.00321,-0.59807 0.59807,-0.221864 1.36978,-0.221864 0.87781,0 1.59163,0.289388 0.71383,0.289389 1.21544,0.810289 z"
         id="path4" />
    </g>
  </g>
</svg>
