<?xml version="1.0" encoding="UTF-8"?>
<svg id="Layer_1" data-name="Layer 1" xmlns="http://www.w3.org/2000/svg" width="216.67" height="177.97" viewBox="0 0 216.67 177.97">
  <rect y="103.33" width="216.67" height="74.64" fill="#e8c7a3"/>
  <ellipse cx="109.36" cy="140.65" rx="67.1" ry="17.86" fill="#705336"/>
  <rect x="41.23" y="88.4" width="134.21" height="15.55" fill="#afafaf"/>
  <polygon points="135.57 56.89 129.24 32.12 140.76 32.12 135.57 56.89" fill="#333"/>
  <path d="M125.2,32.12s-8.06-1.15-4.03-9.22S135-3.02,140.76.44s19.58,8.06,23.62,10.94,20.16,5.9,25.34,4.68,19.01-10.44,19.01,6.27-1.15,41.47-2.3,46.08-.58,24.19-.58,24.19v11.35h-13.25l.58-40.73-1.73-23.04s5.76-6.91-4.03-8.06-24.19-10.94-28.8-9.79-13.82,9.79-13.82,9.79h-19.58Z" fill="#333"/>
</svg>