<?xml version="1.0" encoding="UTF-8"?>
<svg id="Layer_1" data-name="Layer 1" xmlns="http://www.w3.org/2000/svg" width="216.67" height="181.88" viewBox="0 0 216.67 181.88">
  <rect y="107.24" width="216.67" height="74.64" fill="#e8c7a3"/>
  <ellipse cx="109.36" cy="144.56" rx="67.1" ry="17.86" fill="#705336"/>
  <rect x="41.23" y="92.31" width="134.21" height="15.55" fill="#afafaf"/>
  <polygon points="91.41 92.31 83.73 73.95 99.09 73.95 91.41 92.31" fill="#333"/>
  <path d="M193.94,107.24l4.22-45.19s-1.92-21.12-9.22-29.18-18.43-14.98-23.42-14.21-24.19,7.68-24.19,7.68c0,0-16.13,5.38-21.5,6.14s-8.4-.38-11.49,3.84-5.4,11.9-6.55,16.9,0,13.06,0,13.06l-2.69,7.68h-15.36l6.14-20.35v-15.36c0-3.07,1.54-16.13,1.54-16.13,0,0-1.54-1.54,6.14-7.3s13.82,1.54,17.66,0,8.45-.38,17.66-5.38,12.67-7.68,18.05-8.83,16.13-.38,19.2,0,12.29,1.15,15.74,1.15,14.21,3.46,16.13,5.76,9.98,19.2,9.98,20.74-.77,24.58-1.92,30.34-2.69,31.49-2.69,31.49l.77,17.16h-14.21Z" fill="#333"/>
  <rect x="101.73" y="100.98" width="67.63" height="3.74" fill="#333"/>
  <rect x="47.85" y="95.71" width="28.73" height="3.74" fill="#333"/>
</svg>